<?xml version="1.0" standalone="no"?>
<!DOCTYPE svg PUBLIC "-//W3C//DTD SVG 20010904//EN"
 "http://www.w3.org/TR/2001/REC-SVG-20010904/DTD/svg10.dtd">
<svg version="1.0" xmlns="http://www.w3.org/2000/svg"
 width="640.000000pt" height="1345.000000pt" viewBox="0 0 640.000000 1345.000000"
 preserveAspectRatio="xMidYMid meet">

<g transform="translate(0.000000,1345.000000) scale(0.100000,-0.100000)"
fill="#000000" stroke="none">
<path d="M1070 11289 c1 -266 4 -325 16 -344 13 -20 13 -23 -1 -28 -20 -8 -20
-61 0 -81 19 -19 19 -45 0 -52 -13 -5 -15 -58 -14 -398 1 -215 5 -380 9 -366
4 14 8 39 9 57 1 17 5 34 10 37 13 8 63 -68 56 -86 -3 -8 1 -21 10 -28 18 -15
20 -36 3 -43 -10 -4 -10 -8 0 -15 11 -7 8 -11 -9 -15 -13 -4 -26 -1 -30 5 -4
7 -9 4 -12 -8 -4 -18 -5 -18 -6 0 -1 12 -6 16 -17 12 -9 -3 -18 -6 -20 -6 -2
0 -4 -11 -4 -25 0 -29 16 -34 23 -7 3 12 5 10 6 -7 0 -14 8 -32 16 -41 20 -22
4 -69 -25 -77 -19 -5 -20 -14 -20 -254 l0 -249 38 0 c20 0 54 5 76 9 l38 9 -6
-28 -5 -29 27 29 c15 16 41 32 57 36 28 7 29 6 15 -12 -8 -10 -21 -23 -27 -27
-7 -4 -13 -13 -13 -20 0 -8 2 -9 8 -1 8 13 46 34 61 34 21 0 11 -24 -25 -61
-33 -34 -35 -40 -26 -66 6 -15 11 -23 11 -16 1 6 6 24 12 40 7 19 12 24 18 14
6 -9 12 -3 21 18 15 37 30 40 30 6 0 -14 -4 -25 -10 -25 -17 0 -33 -43 -34
-98 -2 -56 4 -50 25 31 13 45 28 57 37 26 3 -11 2 -11 -6 -1 -7 10 -11 3 -15
-24 -7 -43 0 -61 10 -24 l6 24 9 -24 c6 -18 4 -28 -12 -45 -11 -12 -20 -25
-20 -31 0 -5 7 -1 14 9 13 17 15 12 21 -45 4 -36 2 -188 -4 -339 -7 -151 -13
-311 -15 -357 -2 -67 -6 -85 -22 -97 -10 -8 -14 -15 -8 -15 14 0 24 -34 15
-47 -11 -17 -61 -22 -61 -6 0 8 -8 22 -17 31 -18 18 -18 20 3 -32 4 -12 -6
-16 -46 -18 l-52 -3 -1 -57 c-1 -32 1 -58 5 -58 5 0 8 17 8 39 0 49 17 63 74
59 25 -2 46 -4 46 -6 0 -1 -11 -7 -25 -12 -14 -5 -25 -15 -25 -22 0 -7 -14
-19 -31 -27 -16 -7 -28 -15 -25 -18 4 -4 41 5 108 29 15 6 31 8 36 5 11 -8 7
-66 -6 -79 -7 -7 -10 -2 -8 16 2 14 1 26 -1 26 -2 0 -29 -17 -60 -37 -31 -21
-63 -42 -72 -48 -9 -5 -18 -13 -21 -16 -12 -15 -76 -49 -93 -49 -14 0 -16 -5
-11 -25 5 -19 3 -25 -7 -23 -11 2 -15 -27 -17 -151 -2 -124 0 -152 10 -144 21
17 44 11 44 -10 0 -12 -12 -27 -28 -36 l-28 -16 2 -1545 c0 -850 3 -1535 5
-1524 2 12 15 26 29 33 22 9 24 9 22 -7 -2 -11 4 -18 18 -20 12 -2 29 -11 38
-21 16 -18 15 -20 -30 -45 -26 -15 -52 -25 -58 -22 -6 2 -3 5 7 5 9 1 17 8 17
16 0 9 10 15 23 16 16 1 18 2 5 6 -10 2 -18 11 -18 19 0 8 -10 14 -22 14 -17
0 -19 -3 -9 -9 10 -7 11 -13 2 -30 -7 -11 -16 -21 -21 -21 -6 0 -10 -361 -10
-990 l0 -990 23 0 c74 -1 2922 -2 2966 -1 53 1 53 1 48 29 l-6 27 12 -27 c7
-19 18 -28 34 -28 33 0 38 3 36 20 -2 8 2 5 8 -6 9 -19 16 -20 47 -13 20 4 40
6 44 3 13 -8 9 6 -6 21 -7 7 -28 23 -47 34 -23 14 -28 21 -16 21 13 0 17 5 13
18 -20 68 -20 71 13 70 23 -1 31 -6 31 -20 0 -11 7 -18 20 -18 13 0 27 -12 38
-32 9 -18 31 -47 49 -65 29 -31 35 -33 98 -33 69 0 81 14 21 26 -44 8 -98 53
-101 85 -2 14 -12 45 -23 68 -13 27 -16 41 -9 38 7 -3 24 1 37 8 29 15 45 11
88 -27 18 -15 37 -28 42 -28 16 0 11 18 -7 29 -16 9 -16 10 -1 11 9 0 18 6 21
13 4 9 7 9 18 -1 20 -19 28 -14 26 15 -2 22 3 29 19 31 32 5 36 -23 8 -49 -30
-28 -31 -44 -1 -27 12 7 30 11 40 9 10 -1 17 4 17 13 0 12 7 14 30 10 17 -4
30 -2 30 3 0 5 7 18 16 29 14 18 15 17 10 -21 -3 -22 -9 -51 -12 -65 -11 -43
12 -8 25 38 11 39 15 43 36 38 19 -5 23 -2 22 14 -1 14 -6 18 -19 14 -13 -4
-16 -1 -12 10 3 9 10 16 16 16 5 0 6 5 3 10 -4 6 5 10 21 10 23 0 26 -3 22
-25 -4 -17 -1 -25 8 -25 23 0 16 -18 -8 -23 -21 -4 -20 -4 3 -6 20 -1 29 -8
33 -26 4 -14 6 -28 5 -31 0 -4 4 -10 9 -13 5 -3 22 -28 37 -56 24 -45 26 -47
21 -17 l-6 32 55 0 c30 0 58 0 62 1 4 0 9 -4 11 -9 1 -5 -7 -8 -19 -8 -12 1
-24 -5 -26 -12 -3 -8 1 -10 13 -5 12 4 15 3 10 -5 -5 -8 -2 -10 8 -6 9 3 16 1
16 -5 0 -11 52 -7 72 5 4 3 8 0 8 -5 0 -6 -4 -11 -10 -11 -5 0 -10 -5 -10 -11
0 -6 10 -9 23 -8 27 2 57 -9 57 -23 0 -5 -4 -6 -10 -3 -6 3 -16 3 -22 -1 -20
-13 28 -22 119 -23 l83 -1 0 557 c0 346 -4 552 -10 543 -5 -8 -12 -11 -15 -8
-10 9 5 88 16 88 5 0 9 148 9 355 0 269 -3 355 -12 355 -9 0 -9 3 0 12 9 9 12
69 12 207 0 120 -4 190 -9 182 -10 -16 -8 29 4 84 l6 30 -14 -30 -14 -30 -8
29 c-4 15 -5 66 -2 112 3 59 2 82 -6 77 -6 -4 -2 9 10 29 18 30 31 112 23 138
-7 23 -7 59 1 55 5 -4 9 55 9 147 l-1 153 -48 38 c-27 20 -51 37 -54 37 -3 0
-26 20 -53 44 -27 25 -50 43 -53 41 -2 -3 -10 -35 -17 -72 -12 -64 -12 -69 6
-85 11 -9 20 -25 20 -35 0 -21 59 -83 78 -83 7 0 12 -9 12 -20 0 -19 -2 -20
-28 -6 -15 8 -47 35 -70 60 l-42 46 0 -30 c0 -23 14 -45 60 -92 63 -65 70 -78
45 -78 -17 0 -65 49 -92 93 -20 31 -33 35 -33 9 0 -30 57 -107 100 -137 44
-30 51 -45 21 -45 -10 0 -44 27 -75 61 -48 52 -56 57 -56 37 0 -26 45 -104 73
-127 18 -14 23 -41 9 -41 -12 0 -57 50 -81 90 -18 31 -21 32 -21 12 0 -32 31
-89 78 -142 22 -25 39 -46 37 -48 -13 -13 -52 18 -88 70 -44 63 -67 58 -28 -6
26 -41 26 -46 2 -46 -11 0 -22 10 -26 23 -6 18 -8 19 -12 5 -5 -19 26 -74 138
-247 46 -70 77 -127 72 -132 -5 -5 -24 14 -44 44 -19 28 -58 86 -86 128 -28
42 -60 93 -71 113 -11 21 -23 33 -26 28 -8 -13 48 -126 99 -199 50 -71 51 -73
31 -73 -15 0 -97 117 -125 179 l-18 41 -16 -99 c-10 -55 -17 -127 -17 -161 0
-38 -4 -60 -12 -60 -8 0 -9 28 -5 103 l6 102 -18 -34 c-17 -32 -19 -33 -29
-15 -11 19 -11 19 -26 -1 -14 -19 -15 -19 -21 8 -6 22 -1 36 18 64 19 26 23
41 17 53 -6 11 -4 24 6 38 11 15 12 27 5 39 -7 13 -3 25 15 46 19 23 23 37 19
58 -4 18 -2 29 4 29 6 0 10 3 9 8 -1 4 4 18 11 32 8 13 15 40 17 59 2 24 14
46 42 75 32 32 43 53 52 101 9 43 9 60 1 63 -17 6 -13 31 9 59 11 14 20 34 20
45 0 17 -1 18 -25 2 -25 -16 -55 -13 -55 5 0 5 16 19 36 31 19 12 41 32 48 44
15 24 29 99 17 92 -5 -3 -13 6 -19 20 -10 20 -9 26 3 30 8 4 15 10 15 15 0 4
-6 6 -14 3 -8 -3 -25 0 -37 7 -23 12 -23 12 16 26 54 19 71 38 25 28 -39 -8
-70 -9 -77 -1 -12 12 11 25 52 32 64 9 66 24 3 24 -35 0 -67 -7 -92 -21 -25
-13 -42 -17 -48 -11 -14 14 1 35 19 28 10 -4 13 -1 8 14 -7 23 25 42 108 61
31 8 57 17 57 21 0 16 -77 8 -115 -12 -22 -11 -45 -20 -52 -20 -42 0 28 49 80
56 76 10 97 15 97 24 0 6 -17 10 -37 10 -21 0 -57 7 -81 15 -24 9 -49 13 -55
9 -7 -3 1 6 16 20 28 26 50 31 120 27 48 -3 48 13 -2 27 -61 19 -76 15 -129
-33 -47 -42 -72 -55 -72 -37 0 11 61 67 88 82 14 6 50 10 83 8 33 -2 59 1 60
7 1 16 -74 37 -96 27 -22 -10 -45 -5 -45 8 0 17 36 19 90 5 30 -8 55 -13 57
-11 10 10 -43 39 -79 43 -35 4 -50 0 -82 -22 -43 -29 -61 -26 -29 6 30 31 87
40 136 23 44 -16 56 -12 37 11 -7 8 -8 15 -3 15 14 0 -10 178 -33 245 -6 20
-6 20 8 0 22 -30 67 -185 73 -255 0 -3 4 -11 8 -17 5 -8 4 -13 -2 -13 -14 0
-14 -37 -1 -45 5 -3 7 -12 4 -19 -3 -8 0 -17 6 -21 9 -6 9 -10 -1 -16 -11 -8
-11 -12 4 -23 9 -7 17 -17 17 -21 0 -4 -6 -2 -14 4 -12 10 -15 7 -14 -21 1
-44 10 -53 84 -88 35 -16 64 -31 64 -34 0 -6 -82 28 -122 50 -16 8 -28 11 -28
6 0 -11 39 -46 68 -62 13 -6 22 -14 19 -16 -3 -3 -21 4 -42 16 -42 24 -58 19
-29 -9 17 -18 146 -91 159 -91 2 0 5 522 4 1160 0 1038 -2 1158 -15 1153 -13
-5 -13 -7 -3 -14 8 -4 11 -9 9 -11 -30 -19 -90 -44 -90 -38 0 5 9 14 21 20 61
33 106 123 57 114 l-23 -5 23 12 c21 11 22 19 22 111 0 98 0 99 -22 93 l-23
-6 23 17 c20 15 22 24 22 114 l0 97 -25 -5 c-14 -2 -25 -8 -25 -12 0 -8 -72
-25 -78 -18 -6 5 -32 -74 -32 -96 0 -12 5 -16 15 -12 20 7 19 0 -4 -21 -11
-10 -22 -36 -24 -57 -2 -21 -8 -41 -13 -44 -16 -12 -15 -32 1 -26 13 5 13 3 0
-22 -10 -19 -11 -30 -4 -35 8 -4 8 -9 1 -13 -13 -8 -59 -129 -68 -181 -4 -22
-9 -35 -11 -29 -6 17 44 262 73 356 26 87 33 170 12 133 -11 -19 -11 -19 -19
0 -4 11 -8 38 -9 60 -2 34 -3 36 -9 15 -5 -19 -10 -3 -20 62 -7 48 -10 92 -6
98 8 13 -4 52 -14 45 -5 -2 -14 14 -20 36 -18 60 -23 42 -6 -21 17 -65 20
-123 5 -100 -8 12 -10 10 -11 -10 -1 -17 -5 -11 -12 20 l-11 45 -6 -50 c-5
-46 -6 -48 -18 -30 l-14 20 8 -20 c3 -11 9 -30 11 -43 3 -12 9 -25 14 -28 5
-3 9 -24 9 -47 -1 -41 -1 -42 -15 -17 -14 24 -14 24 -15 3 0 -28 -18 -39 -27
-16 -3 10 -12 25 -18 33 -20 23 -47 113 -37 119 5 3 12 20 15 36 l7 30 -15
-27 c-19 -34 -23 -34 -36 -5 -9 21 -9 21 -3 -3 3 -14 7 -32 8 -40 4 -17 21
-65 36 -95 5 -11 9 -34 8 -51 0 -17 2 -36 6 -43 4 -7 2 -19 -6 -28 -9 -12 -9
-15 0 -9 7 4 13 2 13 -6 2 -24 5 -547 3 -545 -12 12 -62 191 -57 204 4 11 3
14 -5 9 -18 -11 -14 5 5 19 11 8 14 18 8 31 -4 10 -7 25 -6 32 1 6 -6 12 -16
12 -14 0 -11 5 10 18 39 24 33 35 -10 17 l-37 -16 20 23 c46 51 31 57 -22 9
-33 -30 -63 -50 -71 -47 -8 3 -12 2 -8 -3 8 -14 -118 -91 -130 -79 -6 5 114
137 205 226 30 30 44 49 32 42 -39 -19 -37 -2 2 21 44 26 46 33 4 25 -31 -6
-31 -6 -13 14 10 11 16 22 14 25 -7 6 -105 -61 -121 -83 -19 -25 -78 -65 -78
-52 0 6 7 13 15 16 8 4 15 12 15 19 0 7 26 34 57 59 31 26 58 56 60 66 2 15
-1 15 -25 -6 -70 -60 -88 -74 -95 -74 -5 0 -5 -5 -1 -12 4 -7 3 -8 -5 -4 -7 4
-15 -2 -20 -16 -6 -13 -10 -18 -10 -11 -1 15 35 82 55 103 12 12 16 13 23 1 6
-9 11 -10 15 -2 4 6 2 11 -3 11 -19 0 -12 15 20 48 17 18 27 32 22 32 -18 0
-58 -37 -88 -79 -15 -23 -30 -40 -32 -38 -5 6 31 67 40 67 4 0 7 5 7 12 0 6
12 26 26 45 14 19 23 37 20 40 -3 3 4 19 16 36 45 63 -4 13 -62 -64 -60 -78
-80 -94 -80 -63 0 18 56 134 108 223 l37 64 6 -39 6 -39 12 33 c7 17 17 32 22
32 11 0 11 2 0 -37 -9 -32 -9 -32 14 -17 13 9 30 29 37 45 l13 30 5 -33 5 -33
20 22 21 22 -4 -32 c-3 -24 2 -37 15 -48 16 -13 17 -12 5 3 -8 10 -12 34 -9
62 2 27 -1 47 -7 50 -7 3 -6 5 2 5 7 1 12 15 12 35 0 19 4 36 9 38 15 6 19 83
6 102 -12 16 -17 15 -72 -14 -36 -20 -48 -24 -33 -11 14 11 39 28 57 37 27 16
32 24 38 73 3 31 8 64 11 73 5 15 2 16 -33 2 -40 -16 -100 -60 -93 -68 3 -2
24 9 48 25 23 16 45 29 48 29 3 0 4 -23 2 -51 -2 -40 -8 -55 -23 -63 -11 -6
-35 -21 -53 -34 -41 -29 -52 -22 -41 25 14 61 13 63 -21 52 -31 -11 -41 -29
-15 -29 11 0 15 -12 15 -51 0 -45 2 -50 15 -39 11 9 15 9 15 1 0 -14 -49 -34
-67 -27 -17 7 -17 53 0 59 9 3 9 7 0 19 -7 8 -9 18 -5 23 4 4 -4 4 -18 0 -14
-4 -49 -9 -78 -10 -29 -1 -54 -4 -55 -6 -1 -2 -8 -15 -16 -29 -8 -14 -27 -50
-42 -80 -15 -30 -37 -63 -48 -72 -12 -10 -21 -25 -21 -33 0 -8 -5 -15 -10 -15
-6 0 -15 -12 -20 -26 -11 -27 -81 -107 -88 -100 -2 3 17 35 42 71 47 69 59 98
29 74 -15 -13 -15 -12 -5 8 7 12 17 25 24 29 7 4 8 3 4 -4 -4 -7 -1 -12 8 -12
9 0 15 3 14 8 -2 10 20 87 43 146 11 27 17 51 14 54 -4 5 -25 -42 -25 -58 0
-4 -16 -31 -35 -60 -19 -29 -35 -55 -35 -59 0 -14 -62 -81 -71 -76 -5 4 -9 1
-9 -6 0 -7 -3 -10 -6 -7 -3 3 9 34 26 68 31 61 44 100 34 100 -3 0 -10 -14
-16 -31 -6 -16 -12 -28 -14 -26 -2 2 3 23 11 47 9 25 12 47 7 52 -5 5 -18 -18
-29 -53 -18 -56 -24 -63 -49 -66 -16 -2 -39 -15 -51 -29 -13 -14 -23 -20 -24
-12 0 7 -5 2 -10 -11 -33 -82 -135 -210 -168 -211 -18 0 -40 -30 -41 -54 0
-10 22 -46 49 -81 27 -34 59 -82 71 -106 22 -46 17 -43 -36 25 l-21 27 -1 -28
c0 -15 14 -47 30 -71 16 -23 26 -47 22 -54 -5 -7 -3 -8 6 -3 10 6 12 4 7 -8
-3 -9 -1 -19 5 -23 7 -5 8 -2 3 6 -5 9 -4 11 4 6 6 -4 9 -12 6 -17 -8 -13 5
-32 42 -63 l32 -27 -34 99 c-19 55 -48 127 -64 161 -16 33 -26 63 -21 66 5 3
11 -8 15 -25 4 -17 10 -28 15 -25 4 2 13 -16 20 -40 7 -25 17 -45 22 -45 6 0
8 -7 4 -15 -3 -8 -1 -15 5 -15 6 0 9 -7 5 -15 -3 -8 -1 -15 4 -15 4 0 12 -15
15 -32 4 -18 14 -50 23 -71 11 -29 17 -35 24 -25 6 9 7 6 3 -8 -4 -16 1 -28
21 -43 15 -12 31 -21 37 -21 42 0 183 -92 275 -178 l42 -40 0 -208 c0 -195 -2
-219 -31 -354 -17 -80 -37 -203 -45 -275 -10 -87 -20 -137 -32 -153 -9 -14
-20 -30 -24 -36 -4 -6 -10 -37 -13 -68 -5 -43 -15 -71 -41 -108 -23 -34 -34
-61 -34 -86 0 -20 -9 -48 -21 -65 -17 -24 -19 -34 -10 -66 8 -28 7 -44 -3 -64
-9 -18 -10 -31 -4 -37 7 -7 4 -20 -9 -39 -41 -61 -46 -78 -33 -118 10 -31 10
-38 -5 -49 -21 -15 -11 -62 14 -69 15 -4 19 -21 25 -107 4 -63 3 -106 -3 -114
-14 -17 -16 -107 -3 -133 16 -29 15 -62 -2 -95 -8 -15 -17 -75 -21 -135 -4
-59 -8 -124 -10 -143 -2 -19 -3 -65 -4 -102 -1 -63 -2 -66 -23 -60 -11 3 -19
1 -16 -4 4 -5 9 -120 13 -255 7 -227 6 -248 -11 -280 -16 -29 -18 -58 -18
-194 0 -88 -2 -152 -4 -142 -2 9 -8 17 -13 17 -13 0 -11 78 2 82 7 2 6 14 -3
38 l-15 35 -17 -94 c-10 -52 -20 -129 -22 -170 -8 -140 -20 -246 -32 -268 -7
-12 -12 -45 -12 -73 0 -63 -20 -192 -31 -204 -5 -6 -9 -22 -9 -38 0 -15 -9
-47 -19 -70 -48 -106 -82 -202 -78 -219 3 -11 1 -17 -3 -14 -5 3 -16 -17 -24
-44 -22 -76 -35 -95 -52 -80 -18 14 -18 81 0 132 12 34 12 37 -4 37 -40 0 -35
73 11 159 16 30 29 63 29 74 0 11 15 47 33 81 29 54 32 66 24 101 -4 22 -5 58
-2 80 4 22 7 72 8 111 2 77 -2 77 -40 -1 -32 -64 -63 -117 -93 -155 -15 -19
-37 -54 -49 -78 -32 -63 -77 -111 -332 -356 -67 -65 -159 -116 -230 -130 -48
-9 -43 -25 -80 234 -6 41 -19 111 -29 155 -10 44 -24 122 -30 173 -7 50 -16
92 -20 92 -4 0 -28 -46 -54 -102 -26 -56 -62 -122 -80 -147 -18 -26 -59 -93
-91 -151 -32 -58 -77 -130 -100 -162 -23 -31 -47 -77 -54 -102 -6 -24 -15 -47
-19 -50 -5 -3 -24 4 -43 14 -19 11 -67 37 -108 57 -102 52 -122 84 -132 209
-6 88 -10 100 -52 173 -48 82 -66 159 -68 289 0 31 -3 50 -6 42 -3 -8 -17 -27
-31 -43 -19 -20 -28 -24 -34 -15 -6 10 -8 10 -8 -1 0 -15 -5 -11 -64 47 -29
27 -39 28 -31 2 5 -16 2 -20 -18 -20 -32 0 -57 27 -33 36 10 4 15 13 12 20 -3
7 -1 16 4 19 6 4 10 12 10 18 0 13 -43 67 -54 67 -4 0 -14 6 -22 14 -13 14
-10 46 6 46 4 0 29 30 56 67 27 36 55 73 63 81 11 11 12 18 3 33 -7 10 -12 29
-12 41 0 19 -2 20 -10 8 -9 -13 -11 -13 -20 0 -5 8 -20 30 -34 49 -23 30 -26
32 -32 15 -3 -10 -13 -32 -22 -49 -15 -28 -15 -29 2 -16 16 13 16 12 6 -10 -6
-14 -21 -31 -32 -38 -19 -12 -20 -11 -14 5 6 16 3 15 -17 -4 -13 -12 -28 -22
-34 -22 -6 0 -13 -7 -17 -15 -9 -24 -34 -18 -53 12 -10 16 -26 37 -35 47 -10
11 -18 25 -18 30 0 6 -4 4 -10 -4 -12 -20 -20 -9 -25 36 -2 22 -5 41 -6 44 -1
3 -1 12 0 22 1 9 -3 19 -8 22 -7 4 -7 15 -1 31 9 24 2 64 -20 105 -7 12 -12
50 -12 83 0 55 -1 59 -14 42 -13 -18 -14 -17 -25 12 -5 17 -19 33 -31 36 -14
4 -18 11 -14 25 9 28 -4 54 -23 47 -25 -8 29 33 72 56 22 11 37 22 35 25 -5 5
-199 -55 -213 -66 -5 -4 -23 -10 -40 -14 -16 -4 -32 -11 -35 -15 -3 -3 -17
-14 -32 -23 l-26 -17 -15 37 c-18 45 -68 226 -93 337 -10 44 -23 83 -30 87
-23 15 -107 162 -131 229 -21 60 -22 74 -12 108 9 32 9 42 -5 63 -28 43 -31
118 -7 173 25 57 26 68 5 86 -33 27 -65 110 -74 192 -13 109 -14 101 23 143
30 35 32 41 29 104 -2 67 -2 68 28 80 17 7 33 16 36 21 2 5 -9 55 -25 111 -16
57 -32 114 -35 128 -2 14 -9 38 -15 53 -6 16 -9 32 -6 37 3 5 1 11 -5 15 -20
12 -10 51 20 73 29 22 50 28 50 16 0 -4 -9 -23 -21 -43 l-21 -36 37 40 c36 39
36 40 29 11 -4 -19 -3 -27 3 -23 6 4 13 41 15 83 3 42 9 79 14 83 5 3 9 12 9
19 0 6 5 12 10 12 6 0 9 -15 8 -33 0 -17 -4 -102 -7 -187 -3 -85 -9 -180 -12
-210 -5 -53 -5 -54 12 -37 13 12 19 33 19 71 1 44 7 61 31 91 16 20 38 48 49
62 16 19 21 46 27 126 4 61 2 118 -4 142 -6 22 -11 74 -11 115 0 94 56 283
107 359 18 27 54 83 80 125 42 70 46 82 46 140 0 88 18 124 100 197 39 35 111
103 159 152 49 48 94 87 100 87 6 0 31 16 57 35 25 19 58 38 72 41 15 4 32 10
37 14 6 5 33 8 60 8 69 -1 215 40 208 58 -3 9 2 14 16 14 28 0 27 18 -1 22
-19 3 -20 5 -7 18 8 8 32 44 54 80 47 77 63 95 93 104 12 4 22 12 22 17 0 5 7
9 15 9 8 0 15 -4 15 -9 0 -5 10 -13 22 -17 40 -12 61 -47 30 -49 -4 -1 -25
-10 -47 -22 -22 -11 -55 -24 -74 -28 -29 -6 -32 -9 -17 -17 12 -7 21 -7 28 0
6 6 17 8 24 5 8 -3 14 0 14 6 0 6 7 11 15 11 8 0 15 -4 15 -10 0 -5 5 -10 10
-10 6 0 10 7 10 15 0 8 8 15 18 15 24 0 42 19 35 36 -3 8 0 14 6 14 6 0 11 -6
12 -12 0 -7 4 -3 9 9 6 15 15 20 28 16 11 -2 23 1 27 8 5 8 4 10 -4 5 -6 -4
-21 -4 -34 0 -17 6 -8 10 43 20 36 7 69 9 75 6 12 -8 17 -9 55 -11 17 0 30 -6
30 -12 0 -6 -17 -8 -47 -4 -33 4 -44 3 -34 -3 8 -6 46 -13 85 -17 39 -4 86
-13 103 -21 32 -13 34 -12 60 23 16 19 38 47 50 62 l22 26 -11 -38 c-14 -47
-6 -90 58 -307 85 -289 105 -345 137 -395 19 -27 37 -59 40 -69 4 -10 10 -16
13 -13 3 3 -6 27 -19 54 -13 26 -27 63 -31 82 -5 29 -4 32 12 26 9 -4 26 -7
37 -6 11 0 44 -7 73 -16 41 -12 61 -14 87 -5 21 6 37 6 41 1 3 -5 23 -6 45 -3
32 5 39 4 39 -10 0 -10 -5 -14 -10 -11 -6 4 -3 -12 6 -34 9 -23 14 -48 11 -56
-4 -8 -2 -17 4 -21 6 -3 2 -20 -11 -42 l-21 -37 36 43 c41 47 54 53 48 20 -2
-13 0 -41 5 -63 8 -36 10 -30 22 75 14 126 16 131 68 199 47 61 121 217 127
266 l5 40 -15 -38 c-19 -49 -78 -130 -110 -151 -13 -9 -50 -26 -82 -37 -32
-12 -64 -26 -70 -32 -9 -6 -13 -6 -13 2 0 7 -5 9 -12 5 -7 -4 -8 -3 -4 4 4 6
-2 20 -12 30 -10 10 -18 30 -16 43 1 13 3 29 3 35 1 6 12 17 26 24 13 7 32 29
41 49 26 54 99 118 180 157 79 38 103 72 84 117 -10 22 -10 22 -7 -2 1 -13 -4
-26 -11 -29 -9 -3 -11 3 -7 21 8 32 -5 40 -69 43 -37 2 -55 8 -67 23 -10 12
-24 21 -32 21 -20 0 -30 40 -11 47 8 3 25 2 39 -1 22 -6 25 -3 25 19 0 15 5
36 11 47 13 24 -1 38 -38 38 -13 0 -23 6 -23 15 0 10 9 13 29 10 16 -2 38 3
48 11 16 12 13 13 -28 9 -39 -5 -48 -2 -66 19 -15 17 -28 23 -42 19 -15 -4
-21 -1 -21 12 0 15 8 17 68 11 108 -11 130 -17 154 -40 13 -13 37 -31 55 -41
18 -10 33 -27 35 -38 2 -14 10 -9 36 25 18 23 35 54 38 68 3 14 9 33 14 42 7
12 3 30 -13 60 -35 64 -70 115 -88 126 -14 9 -15 6 -9 -26 4 -21 17 -57 29
-82 11 -25 21 -54 21 -64 0 -18 -1 -18 -19 -2 -16 15 -19 15 -31 1 -17 -21
-33 -19 -25 4 3 11 2 22 -3 24 -10 7 -10 -34 1 -51 7 -10 3 -10 -17 0 -14 6
-26 15 -26 20 0 4 -6 8 -14 8 -7 0 -19 7 -26 15 -11 13 -8 15 13 15 19 0 25 4
21 15 -4 8 -12 15 -20 15 -15 0 -29 43 -19 59 3 6 12 11 19 11 8 0 19 6 25 14
21 25 -11 36 -95 33 -69 -2 -79 0 -78 15 1 9 -4 14 -11 12 -6 -3 -18 2 -25 11
-7 8 -21 15 -31 15 -11 0 -19 6 -19 14 0 8 -6 16 -12 19 -15 5 43 65 58 60 9
-3 44 67 44 88 0 6 7 17 15 25 8 9 18 27 22 42 12 50 67 116 101 123 35 7 36
6 22 -20 -9 -18 0 -60 21 -103 5 -10 9 -24 9 -32 0 -17 48 -76 62 -76 5 0 21
-9 35 -20 18 -14 41 -20 79 -20 58 0 74 11 47 32 -20 15 -24 69 -6 75 6 2 13
-6 15 -18 2 -18 13 -25 51 -35 46 -12 47 -12 47 12 0 13 5 24 10 24 6 0 10 16
10 35 l0 35 20 -20 c11 -11 20 -26 20 -34 0 -8 5 -18 10 -21 6 -3 10 -1 10 5
0 6 3 9 8 6 12 -7 -15 -286 -32 -335 -19 -51 -20 -61 -6 -61 6 0 10 10 10 23
0 15 3 18 9 9 10 -17 28 28 30 75 1 18 5 42 10 55 10 22 10 22 10 -4 1 -16 5
-28 9 -28 4 0 13 12 19 28 13 28 43 82 60 104 5 7 26 66 48 130 21 64 41 116
44 115 4 -1 16 8 29 21 20 20 22 32 22 115 0 56 -5 98 -11 104 -9 9 -9 23 -1
55 6 24 8 55 5 68 -7 29 -93 183 -105 188 -4 2 -8 10 -8 18 0 8 -4 14 -10 14
-5 0 -10 5 -10 11 0 6 9 9 20 6 17 -4 20 -2 15 16 -4 16 -1 14 10 -6 9 -16 14
-35 11 -44 -5 -13 14 -43 27 -43 12 0 15 55 8 160 -5 65 -5 119 0 124 5 6 9
-1 9 -17 0 -15 5 -27 10 -27 6 0 10 -9 10 -20 0 -15 7 -20 25 -20 14 0 25 6
26 13 1 27 17 -34 35 -133 16 -96 19 -102 27 -72 11 36 27 43 27 12 0 -11 5
-20 11 -20 6 0 9 7 5 15 -3 8 -2 15 3 15 5 0 12 -12 15 -26 9 -34 30 -25 37
17 4 19 7 29 8 22 0 -6 7 -10 14 -9 21 3 38 17 35 29 -1 7 6 28 14 47 23 50
31 74 29 84 -1 5 4 16 11 25 8 9 15 30 17 46 2 17 4 31 4 32 1 0 22 -42 46
-95 48 -105 81 -155 60 -92 -6 19 -20 55 -31 79 -10 24 -17 49 -14 56 2 8 -2
16 -11 19 -8 4 -13 13 -9 21 3 8 1 15 -4 15 -6 0 -18 17 -28 38 -9 20 -25 46
-34 56 -10 11 -18 24 -18 29 0 8 -48 76 -61 87 -3 3 -11 15 -18 28 -7 12 -16
20 -22 17 -5 -4 -9 0 -9 8 0 29 -124 129 -196 158 -38 16 -72 29 -76 29 -5 0
-7 -19 -7 -42 1 -24 3 -35 6 -25 7 25 23 11 23 -21 0 -19 3 -23 9 -13 12 18
96 27 106 11 11 -18 9 -78 -4 -127 -17 -64 -91 -133 -91 -85 0 15 -24 95 -52
174 -6 15 -14 25 -19 22 -5 -3 -9 8 -9 25 0 16 5 31 11 33 6 2 8 14 4 31 -7
24 -12 28 -39 26 -17 -2 -37 0 -44 5 -19 11 -3 28 20 20 11 -3 26 -7 32 -9 6
-1 18 -5 26 -8 8 -3 40 -8 71 -10 32 -3 79 -17 109 -32 50 -25 200 -160 200
-179 0 -5 12 -24 26 -43 14 -19 23 -41 20 -48 -3 -9 1 -15 9 -15 18 0 103
-169 143 -285 34 -99 54 -198 52 -254 -3 -56 0 -69 10 -46 7 16 9 11 9 -21 1
-30 7 -45 21 -55 11 -8 21 -28 23 -47 4 -37 17 -56 17 -24 0 14 6 22 18 22 16
1 16 1 0 11 -24 14 -23 29 3 29 14 0 19 5 16 15 -4 8 -2 17 4 21 6 3 8 12 5
20 -3 8 1 14 8 14 8 0 22 3 32 7 13 5 16 3 11 -10 -3 -9 -2 -17 3 -17 16 0 11
122 -5 144 -8 11 -15 27 -15 35 0 9 -20 41 -45 71 -42 52 -143 266 -161 343
-4 19 -9 25 -14 17 -6 -10 -17 -7 -44 9 -42 26 -45 38 -12 47 28 7 25 24 -10
60 -13 12 -24 29 -24 37 0 8 -9 22 -19 31 -11 10 -17 24 -15 31 3 7 -4 15 -17
18 -14 4 -20 11 -16 21 4 9 1 15 -5 13 -7 -1 -12 3 -13 8 -1 20 -26 50 -31 38
-4 -9 -16 -6 -45 9 -44 23 -50 38 -15 38 15 0 26 -7 29 -20 3 -11 10 -20 16
-20 9 0 9 5 1 20 -9 16 -8 20 5 20 8 0 15 -3 15 -7 0 -9 48 -33 66 -33 7 0 15
6 18 13 3 6 4 4 3 -7 -2 -21 35 -51 76 -60 39 -9 34 10 -13 55 -22 21 -40 43
-40 49 0 6 -5 8 -10 5 -6 -3 -10 1 -10 9 0 9 7 16 15 16 8 0 15 -7 15 -15 0
-9 6 -12 15 -9 8 4 15 10 15 14 0 11 -80 41 -91 34 -5 -3 -16 -1 -22 5 -14 11
-57 4 -57 -10 0 -8 44 -13 83 -10 9 1 17 -2 17 -7 0 -5 -61 -14 -136 -20 -75
-7 -142 -16 -149 -22 -14 -12 -115 -10 -115 2 0 4 6 8 13 9 71 6 92 10 111 22
12 8 37 13 55 11 17 -2 30 0 27 4 -2 4 4 27 14 50 11 23 17 48 15 55 -3 6 10
21 27 32 42 25 58 31 34 13 -12 -9 -17 -21 -13 -32 7 -17 27 -22 27 -7 0 5 7
17 16 26 14 13 19 14 25 3 6 -9 9 -4 9 14 0 15 5 30 11 33 33 21 130 32 255
29 131 -3 165 1 93 10 -65 9 -134 18 -139 19 -3 1 -47 -2 -99 -6 -94 -8 -171
-35 -240 -84 -19 -14 -23 -15 -19 -3 2 8 13 20 24 25 10 6 37 27 58 48 22 20
43 37 46 37 4 0 30 29 58 65 29 36 49 65 45 65 -4 0 -46 -14 -93 -31 -47 -17
-105 -34 -129 -40 -44 -9 -92 -51 -159 -139 -50 -66 -115 -130 -131 -129 -12
0 -13 2 -2 6 27 11 51 38 62 70 6 18 15 31 20 28 5 -4 9 -2 9 3 0 16 90 126
151 183 62 60 68 69 45 69 -8 0 -16 3 -19 8 -2 4 -2 1 0 -6 3 -13 -19 -42 -31
-42 -13 0 3 123 18 139 9 10 16 23 16 29 0 7 5 12 10 12 6 0 10 7 10 15 0 26
79 103 118 116 20 6 41 15 46 20 6 5 -350 9 -828 8 l-838 0 5 -37 c5 -41 -19
-112 -39 -112 -7 0 -19 -2 -27 -6 -9 -3 -20 8 -32 33 -10 21 -24 44 -32 51 -7
7 -13 27 -13 43 l0 29 -112 0 c-83 -1 -118 -5 -132 -15 -20 -15 -12 -22 24
-24 8 0 41 -4 74 -7 40 -5 60 -3 66 5 7 12 82 -62 117 -115 17 -27 6 -59 -35
-98 l-30 -28 -16 48 c-9 29 -14 37 -12 19 3 -16 8 -39 12 -50 5 -14 -1 -11
-20 10 -14 17 -29 38 -32 48 -6 18 -24 24 -24 7 0 -5 -7 -10 -15 -10 -27 0
-16 -27 26 -64 38 -33 40 -36 18 -36 -44 0 -159 -34 -159 -47 0 -14 27 -11 78
8 13 5 35 9 50 9 l26 0 -30 -31 c-16 -17 -48 -44 -70 -60 -36 -25 -44 -27 -54
-14 -7 8 -17 15 -22 15 -5 0 -2 -8 7 -17 16 -16 14 -20 -41 -73 -41 -39 -65
-55 -78 -52 -13 4 -17 1 -12 -6 4 -7 2 -12 -3 -12 -16 0 -15 1 29 85 22 42 40
82 40 90 0 7 6 15 13 18 6 2 9 8 5 12 -4 4 -14 0 -23 -9 -18 -18 -30 -21 -20
-7 3 5 1 12 -5 16 -6 4 -8 11 -4 16 3 5 0 16 -6 24 -7 8 -10 26 -8 40 3 14 1
28 -3 31 -5 3 -9 14 -9 24 0 27 -21 70 -31 64 -5 -3 -9 2 -9 11 0 10 -5 13
-12 9 -7 -5 -1 8 13 27 15 19 55 49 93 68 45 24 66 40 66 53 0 17 -14 18 -290
17 -174 0 -288 -4 -285 -10 4 -5 12 -9 19 -9 7 0 25 -12 39 -26 14 -14 30 -23
36 -20 5 4 12 -3 16 -14 3 -11 12 -20 20 -20 7 0 16 -7 19 -16 3 -8 9 -13 14
-10 11 6 78 -51 70 -60 -11 -10 -110 -6 -121 5 -5 5 -15 7 -23 4 -18 -7 -102
122 -104 160 0 15 -11 17 -111 15 -106 -2 -110 -2 -105 -22 3 -12 8 -48 11
-81 6 -48 4 -63 -8 -73 -8 -7 -19 -12 -23 -11 -15 3 -90 -34 -78 -38 8 -2 9
-18 4 -46 -5 -23 -4 -49 1 -59 5 -9 9 -55 9 -101 l0 -84 53 9 c28 5 63 16 76
25 21 14 23 14 18 0 -3 -8 0 -21 6 -28 10 -11 9 -11 -5 0 -23 17 -23 10 2 -34
11 -20 21 -46 21 -58 1 -17 2 -18 6 -4 6 22 33 22 33 -1 0 -10 10 -26 22 -36
l21 -18 -6 36 c-3 20 -2 36 4 36 5 0 9 -8 10 -17 1 -12 4 -9 8 7 4 14 12 25
19 25 7 0 12 3 12 8 0 4 0 12 0 17 0 6 -8 10 -17 10 -15 0 -15 2 -4 9 12 8 11
13 -10 31 -13 12 -18 19 -11 15 8 -4 12 2 13 17 0 22 1 22 9 3 7 -18 8 -18 15
7 5 19 2 32 -9 43 -9 9 -16 22 -16 28 0 7 4 6 10 -3 8 -13 10 -13 10 1 0 26
47 66 92 77 35 9 44 8 54 -6 43 -57 184 -363 184 -399 0 -7 5 -13 10 -13 6 0
10 -20 10 -44 0 -25 -4 -48 -10 -51 -5 -3 -10 -22 -10 -41 0 -19 -12 -82 -26
-140 -14 -59 -23 -113 -20 -120 3 -8 -4 -32 -15 -54 -11 -22 -18 -44 -14 -50
3 -5 2 -10 -4 -10 -5 0 -8 -9 -6 -20 2 -11 -1 -22 -6 -26 -5 -3 -7 -15 -3 -26
3 -11 -1 -39 -9 -61 -16 -42 -42 -202 -52 -312 -15 -174 -17 -186 -32 -181
-12 5 -13 0 -8 -27 4 -17 10 -36 15 -40 4 -4 3 -27 -1 -50 -22 -121 -30 -196
-35 -332 -5 -141 -14 -182 -35 -169 -18 11 -69 22 -69 15 0 -3 14 -12 30 -18
39 -15 32 -46 -9 -36 -23 6 -25 5 -12 -10 21 -26 6 -50 -26 -43 -16 3 -35 2
-43 -4 -12 -8 -9 -10 13 -10 16 0 27 -5 27 -14 0 -17 -102 -126 -118 -126 -6
0 -14 12 -18 28 -10 44 -12 49 -13 20 -1 -34 -16 -37 -25 -5 -9 33 -8 37 9 37
18 0 19 9 4 30 -9 13 -10 12 -5 -3 3 -10 2 -16 -2 -13 -4 2 -9 28 -10 56 -1
28 -6 59 -11 68 -8 15 -17 105 -26 260 -2 29 -6 66 -10 81 -3 17 -2 32 4 36 6
3 11 15 11 26 0 13 -4 18 -11 13 -8 -5 -10 1 -7 19 3 15 1 24 -3 21 -5 -3 -9
-1 -9 5 0 5 5 13 10 16 6 3 9 23 9 43 l-2 37 -6 -35 c-6 -33 -7 -34 -14 -10
-10 37 -9 92 3 85 5 -3 6 -13 3 -22 -4 -11 -3 -14 5 -9 6 4 11 18 10 31 -1 13
-6 22 -10 19 -13 -8 -25 30 -18 61 l6 30 6 -27 c3 -16 1 -28 -4 -28 -5 0 -6
-5 -2 -11 5 -8 8 -8 13 0 10 16 -9 132 -20 125 -10 -6 -12 40 -2 74 7 30 23
10 23 -31 0 -16 4 -26 9 -23 5 3 12 -4 16 -17 7 -20 8 -18 12 12 6 44 22 60
51 50 16 -6 22 -17 23 -41 2 -28 2 -29 6 -8 6 30 22 52 34 44 5 -3 9 11 9 30
0 27 3 34 15 30 18 -7 20 12 3 22 -7 5 -21 9 -30 9 -10 1 -21 5 -25 9 -12 11
17 24 41 18 17 -4 19 -3 11 9 -16 23 -12 53 9 57 12 3 16 0 11 -8 -6 -9 -2 -9
14 -1 14 8 21 8 21 1 0 -24 16 -7 18 20 1 17 -3 30 -9 30 -6 0 -8 7 -5 16 3 8
2 12 -4 9 -6 -4 -10 7 -10 24 0 33 -16 40 -39 19 -11 -11 -12 -9 -6 10 4 13 2
22 -4 22 -6 0 -11 7 -11 16 0 8 -4 12 -10 9 -5 -3 -10 1 -10 9 0 30 -19 16
-26 -19 -3 -19 -10 -38 -15 -41 -5 -3 -7 1 -5 8 14 44 16 69 5 63 -6 -4 -15
-1 -20 6 -6 10 -9 5 -9 -15 l0 -30 -20 22 c-29 30 -34 27 -11 -5 11 -16 22
-39 25 -53 l7 -25 -17 23 c-9 12 -21 22 -27 22 -5 0 -16 8 -24 18 -14 16 -14
16 -8 -3 3 -11 9 -32 12 -47 3 -16 9 -28 13 -28 13 0 21 -31 12 -46 -12 -22
-29 1 -35 46 -4 33 -4 33 -5 -7 -1 -24 3 -43 8 -43 6 0 10 -11 10 -25 0 -14
-5 -25 -11 -25 -5 0 -7 -5 -4 -10 9 -15 -5 -51 -16 -44 -6 3 -8 11 -6 17 2 7
-2 26 -10 44 -15 38 -16 46 -4 39 5 -3 11 6 14 19 2 14 0 28 -4 31 -13 7 -11
54 2 54 13 0 8 192 -6 203 -6 4 -5 10 3 16 9 5 12 20 8 42 -2 19 -7 61 -10 94
l-5 60 12 -52 c14 -58 24 -73 33 -49 3 9 10 16 15 16 4 0 6 -7 3 -15 -8 -20 6
-19 23 3 14 16 14 16 9 -1 -3 -10 -2 -15 3 -12 5 3 12 1 16 -5 12 -19 44 8 38
32 l-5 23 21 -23 c11 -13 25 -22 30 -20 13 4 -18 69 -40 86 -10 6 -21 26 -24
43 -5 23 -9 28 -16 18 -7 -11 -9 -11 -9 -1 0 15 -24 43 -37 43 -4 0 -20 11
-35 25 l-28 24 0 -46 c0 -43 -16 -74 -38 -74 -5 0 -7 10 -5 23 2 12 6 39 9 60
4 20 10 40 15 43 5 3 9 16 9 30 0 16 -4 23 -11 18 -6 -3 -15 0 -20 7 -6 10 -9
11 -9 2 0 -24 -28 -13 -32 12 -3 15 -1 22 5 18 6 -4 8 3 4 17 -3 13 0 37 6 54
7 18 10 48 6 71 -3 22 -7 34 -8 26 0 -8 -4 -12 -7 -9 -9 10 18 87 30 85 6 -1
12 8 14 21 3 20 -6 27 -30 23 -4 0 -6 21 -4 47 2 26 5 47 6 47 8 0 5 161 -2
166 -11 7 -17 99 -7 99 6 0 29 46 29 58 0 4 -4 0 -10 -8 -11 -17 -21 -10 -23
18 -1 19 -8 20 -115 20 -106 0 -113 -1 -109 -19 4 -16 -2 -28 -43 -76 -5 -7
-10 -17 -10 -24 0 -28 -63 -119 -95 -138 -19 -11 -35 -25 -35 -31 0 -5 -4 -10
-10 -10 -5 0 2 20 15 44 30 53 33 75 9 55 -15 -12 -16 -11 -10 9 4 12 4 22 -1
22 -13 0 -33 59 -22 66 15 9 10 44 -6 44 -8 0 -15 5 -15 11 0 23 -20 -4 -26
-36 -3 -19 -10 -32 -15 -29 -6 3 -7 -6 -3 -22 5 -20 4 -25 -5 -20 -7 5 -20 -2
-32 -15 -18 -21 -19 -21 -19 -2 0 10 13 40 30 66 16 25 36 60 45 77 l16 30
-70 0 -70 0 -17 -35 c-15 -33 -34 -54 -34 -39 0 4 9 22 21 40 l21 34 -126 0
c-104 0 -126 -3 -134 -16 -8 -15 -10 -15 -15 0 -4 9 -18 16 -32 16 l-25 0 0
-321z m800 285 c0 -8 -4 -12 -10 -9 -5 3 -10 10 -10 16 0 5 5 9 10 9 6 0 10
-7 10 -16z m763 -36 c16 -50 14 -67 -3 -23 -13 34 -24 81 -18 75 3 -3 12 -26
21 -52z m-1455 -8 c11 -8 45 -110 38 -117 -5 -6 -26 39 -26 57 0 5 -7 16 -16
24 -8 9 -17 33 -20 53 -4 34 -3 35 6 13 6 -13 14 -27 18 -30z m3600 30 c-7
-11 -16 -20 -21 -20 -4 0 -5 -5 -1 -12 5 -7 3 -8 -5 -3 -9 5 -7 13 10 31 27
29 33 31 17 4z m-2498 1 c0 -5 -7 -14 -15 -21 -16 -14 -18 -10 -9 14 6 17 24
22 24 7z m48 -45 c34 -37 44 -73 16 -62 -9 3 -19 6 -24 6 -4 0 -11 15 -15 33
-4 17 -9 26 -12 20 -9 -23 -20 -14 -15 12 6 33 11 32 50 -9z m-983 -25 c-8
-17 -21 -33 -27 -37 -8 -5 -7 1 3 16 8 14 19 31 23 38 15 25 16 11 1 -17z
m520 -21 c3 -6 -1 -7 -9 -4 -18 7 -21 14 -7 14 6 0 13 -4 16 -10z m1718 -41
c-12 -12 -6 -40 11 -51 16 -10 -6 -62 -28 -66 -19 -4 -19 5 0 53 7 18 6 18 -9
6 -15 -11 -17 -11 -17 1 0 16 37 68 48 68 3 0 1 -5 -5 -11z m-2145 -34 c-6
-14 -15 -25 -19 -25 -5 0 -3 11 3 25 6 14 15 25 19 25 5 0 3 -11 -3 -25z
m1991 -42 c-1 -34 -2 -35 -9 -13 -11 36 -11 50 0 50 6 0 10 -17 9 -37z m-791
7 c7 -11 18 -20 26 -20 9 0 20 -36 35 -112 12 -62 27 -129 33 -150 11 -36 6
-84 -14 -146 -13 -42 -18 -36 -53 58 -15 41 -39 95 -51 120 -25 47 -29 65 -16
73 4 2 2 3 -4 1 -10 -2 -74 123 -74 144 0 13 64 52 85 52 11 0 26 -9 33 -20z
m-1462 -47 c-11 -11 -17 4 -9 23 7 18 8 18 11 1 2 -10 1 -21 -2 -24z m334 27
c0 -5 -2 -10 -4 -10 -3 0 -8 5 -11 10 -3 6 -1 10 4 10 6 0 11 -4 11 -10z
m1810 -25 c0 -9 -9 -15 -22 -15 -22 1 -23 1 -4 15 25 19 26 19 26 0z m-572
-86 c15 -45 20 -77 15 -99 -6 -33 -6 -33 -16 -9 -5 13 -13 44 -17 69 -5 25
-11 63 -15 85 -11 58 8 33 33 -46z m2012 77 c0 -2 -8 -10 -17 -17 -16 -13 -17
-12 -4 4 13 16 21 21 21 13z m-1549 -72 c11 -13 8 -19 -22 -42 -19 -15 -48
-41 -65 -59 -46 -49 -74 -56 -98 -25 l-20 25 38 31 c44 36 126 85 142 86 6 0
17 -7 25 -16z m49 12 c0 -2 -7 -9 -15 -16 -12 -10 -15 -10 -15 4 0 9 7 16 15
16 8 0 15 -2 15 -4z m-1848 -95 c2 -17 0 -27 -4 -24 -5 3 -8 -1 -7 -8 5 -26
-12 -79 -23 -73 -7 4 -8 2 -4 -4 4 -7 1 -26 -7 -44 -8 -18 -18 -41 -21 -51 -3
-10 -10 -16 -15 -12 -9 5 -2 40 19 90 17 41 40 119 40 137 0 29 17 21 22 -11z
m1618 -73 c0 -10 -7 -18 -16 -18 -8 0 -36 -14 -62 -32 -49 -34 -55 -39 -87
-78 l-20 -25 26 23 c14 12 30 22 36 22 7 0 18 6 25 13 7 7 40 25 73 41 33 16
73 35 88 42 38 19 50 18 65 -6 7 -11 17 -20 23 -20 5 0 8 4 4 9 -3 5 -1 12 5
16 14 9 12 -19 -2 -34 -11 -10 -10 -15 5 -25 9 -7 17 -22 17 -32 -1 -17 -2
-17 -19 4 -11 12 -22 22 -25 22 -9 0 24 -52 43 -67 8 -7 11 -16 7 -20 -4 -4
-18 7 -32 25 -14 18 -30 29 -36 26 -6 -4 -8 -3 -5 3 4 6 -8 28 -27 49 -37 43
-39 36 -17 -55 11 -43 20 -57 47 -73 19 -11 31 -24 28 -29 -7 -12 -45 -11 -64
1 -11 7 -16 4 -20 -10 -4 -14 -9 -17 -20 -10 -12 8 -13 13 -2 30 13 21 12 22
-53 22 -49 0 -55 -2 -61 -27 -4 -18 -13 -25 -30 -25 -13 0 -24 -4 -24 -10 0
-5 4 -10 10 -10 5 0 -10 -18 -34 -40 -43 -40 -44 -42 -34 -78 12 -45 54 -128
68 -137 18 -11 11 -25 -14 -25 -19 0 -23 -4 -19 -20 3 -11 12 -20 19 -20 8 0
14 -9 14 -21 0 -11 5 -17 10 -14 6 4 7 12 4 18 -5 8 -3 8 7 0 14 -14 47 -17
72 -7 9 3 12 14 9 31 -3 17 -1 24 6 20 5 -4 24 9 41 28 38 43 45 44 36 3 l-7
-33 22 20 22 20 -7 -38 c-6 -30 -4 -37 9 -37 20 0 20 -23 0 -58 l-16 -27 25
28 c33 35 40 34 35 -5 -4 -26 -3 -28 7 -15 18 25 48 22 40 -3 -4 -12 -2 -20 5
-20 6 0 8 5 5 10 -3 6 3 10 15 10 12 0 18 -4 15 -10 -3 -5 1 -10 9 -10 9 0 16
-9 16 -20 0 -19 -19 -19 -46 1 -11 9 -41 -201 -31 -218 3 -5 -19 -39 -49 -77
-30 -37 -54 -63 -54 -58 0 5 9 21 20 35 11 14 20 28 20 32 0 4 10 15 22 24 17
14 23 32 26 80 4 53 2 61 -12 55 -9 -3 -13 -10 -10 -15 5 -9 -16 -36 -28 -35
-17 2 -87 -51 -88 -66 0 -10 -4 -18 -10 -18 -5 0 -10 -6 -10 -13 0 -7 -9 -18
-20 -25 -11 -7 -20 -18 -20 -26 0 -7 -10 -38 -23 -67 -13 -30 -23 -70 -23 -91
1 -20 -1 -36 -4 -35 -3 1 -6 -2 -7 -6 -1 -5 -10 -16 -21 -25 -10 -9 -17 -23
-15 -29 3 -7 -1 -13 -7 -13 -10 0 -10 -3 -1 -14 10 -12 4 -26 -28 -74 -23 -33
-41 -65 -41 -71 0 -7 -4 -9 -10 -6 -5 3 -10 -2 -10 -12 0 -10 -17 -35 -38 -55
-21 -20 -44 -49 -52 -65 -19 -36 -90 -133 -99 -133 -3 0 -14 -14 -23 -30 -19
-34 -35 -38 -41 -12 -2 10 -3 8 -2 -5 1 -12 -2 -28 -7 -35 -6 -8 -7 9 -2 47
11 93 15 145 14 210 -1 34 3 72 9 86 5 16 6 44 0 74 -6 34 -6 51 2 56 6 4 9
11 5 17 -8 14 4 93 14 87 10 -6 8 29 -2 36 -5 3 -2 13 7 23 13 12 16 32 14 86
-1 38 2 75 8 82 5 7 24 76 42 153 18 77 37 151 42 165 5 14 16 57 25 95 8 39
19 86 24 105 4 19 15 71 24 115 9 44 24 105 33 135 9 30 17 73 17 95 1 34 4
40 24 43 16 3 22 8 18 19 -6 14 4 25 99 106 28 23 31 24 48 10 9 -9 17 -24 17
-35z m-1743 10 c-3 -7 -5 -2 -5 12 0 14 2 19 5 13 2 -7 2 -19 0 -25z m393 12
c0 -5 -5 -10 -11 -10 -5 0 -7 5 -4 10 3 6 8 10 11 10 2 0 4 -4 4 -10z m2876
-8 c1 -7 2 -21 3 -33 0 -11 5 -18 10 -15 13 8 21 -18 10 -35 -6 -9 -9 -10 -9
-2 0 8 -7 10 -17 6 -11 -4 -12 -8 -5 -11 19 -6 14 -22 -8 -22 -13 0 -18 5 -14
15 4 8 1 15 -5 15 -14 0 -14 40 -1 75 10 26 34 30 36 7z m-3121 -21 c-3 -12
-10 -21 -15 -21 -5 0 -4 11 2 25 13 29 23 26 13 -4z m212 7 c-3 -8 -6 -5 -6 6
-1 11 2 17 5 13 3 -3 4 -12 1 -19z m1833 -7 c0 -12 -20 -25 -27 -18 -7 7 6 27
18 27 5 0 9 -4 9 -9z m-2203 -33 c-3 -7 -5 -2 -5 12 0 14 2 19 5 13 2 -7 2
-19 0 -25z m3211 9 c3 -12 -3 -17 -22 -17 -29 0 -44 19 -25 31 20 13 43 6 47
-14z m-1131 -9 c-3 -8 -6 -5 -6 6 -1 11 2 17 5 13 3 -3 4 -12 1 -19z m1493
-38 c0 -5 -5 -10 -11 -10 -5 0 -7 5 -4 10 3 6 8 10 11 10 2 0 4 -4 4 -10z
m-2037 -15 c-3 -9 -8 -14 -10 -11 -3 3 -2 9 2 15 9 16 15 13 8 -4z m-1438 -33
c-10 -10 -16 -12 -13 -7 3 6 8 19 13 30 5 14 9 16 12 7 3 -8 -3 -21 -12 -30z
m3453 11 c-2 -9 -14 -18 -27 -20 -24 -3 -24 -3 -6 17 22 24 38 26 33 3z m-874
-42 c-9 -10 -36 28 -29 39 6 9 12 6 21 -11 7 -13 10 -26 8 -28z m127 20 c-12
-16 -21 -32 -21 -36 0 -3 -24 -39 -53 -78 -30 -40 -64 -88 -77 -107 -31 -46
-60 -74 -68 -65 -4 4 6 18 21 31 26 22 27 26 13 40 -20 19 -20 30 -1 38 8 3
15 17 15 31 0 14 6 25 14 25 7 0 25 11 40 25 28 26 52 34 40 13 -4 -7 5 0 21
15 26 25 28 31 16 49 -11 18 -11 20 2 15 10 -4 18 1 22 14 4 10 13 19 21 19
12 0 11 -6 -5 -29z m330 -4 c-13 -13 -26 -3 -16 12 3 6 11 8 17 5 6 -4 6 -10
-1 -17z m-3011 -22 c0 -8 -7 -15 -16 -15 -14 0 -14 3 -4 15 7 8 14 15 16 15 2
0 4 -7 4 -15z m1387 -17 c-3 -8 -6 -5 -6 6 -1 11 2 17 5 13 3 -3 4 -12 1 -19z
m398 12 c3 -5 1 -10 -4 -10 -6 0 -11 5 -11 10 0 6 2 10 4 10 3 0 8 -4 11 -10z
m-2075 -19 c0 -30 -17 -34 -22 -6 -4 17 -1 25 8 25 8 0 14 -9 14 -19z m226
-18 c-8 -15 -15 -22 -16 -15 0 14 22 53 28 47 2 -2 -3 -16 -12 -32z m3114 15
c31 -20 30 -32 -3 -77 -18 -22 -48 -63 -68 -90 -21 -26 -54 -82 -74 -124 -21
-42 -41 -74 -46 -71 -5 3 -6 -9 -3 -26 7 -35 -6 -39 -33 -11 -33 34 -122 91
-163 103 -62 20 -51 34 48 63 35 10 67 26 72 34 5 9 10 12 10 7 0 -5 7 -3 15
4 8 7 12 17 8 23 -4 7 1 8 13 4 18 -7 18 -7 0 8 -11 8 -30 15 -43 15 -47 0
-23 41 32 55 43 12 47 13 78 18 45 9 67 18 67 27 0 12 -36 31 -44 23 -3 -3 -6
-2 -6 4 0 31 96 38 140 11z m-156 3 c3 -5 -1 -14 -8 -20 -16 -13 -32 2 -21 19
8 12 22 13 29 1z m-2895 -18 c-4 -53 -15 -75 -46 -88 -36 -15 -38 -13 -22 36
11 33 42 69 60 69 5 0 8 -8 8 -17z m75 -50 c-20 -14 -44 -17 -44 -5 0 4 13 22
28 40 l27 34 3 -28 c3 -18 -3 -33 -14 -41z m1769 31 c-3 -8 -9 -14 -13 -14
-13 0 -22 19 -15 30 9 14 34 0 28 -16z m64 -16 c-3 -7 -5 -2 -5 12 0 14 2 19
5 13 2 -7 2 -19 0 -25z m453 18 c0 -3 -4 -8 -10 -11 -5 -3 -10 -1 -10 4 0 6 5
11 10 11 6 0 10 -2 10 -4z m-993 -28 c-3 -8 -6 -5 -6 6 -1 11 2 17 5 13 3 -3
4 -12 1 -19z m743 -39 c0 -20 3 -38 6 -42 8 -7 11 -107 4 -107 -3 0 -12 6 -21
13 -13 10 -15 22 -9 62 5 28 4 54 -1 60 -13 13 -11 28 2 19 8 -4 9 4 4 27 -4
25 -3 30 4 19 6 -8 11 -31 11 -51z m40 6 c0 -28 -25 -10 -28 20 -3 26 -2 27
12 12 9 -8 16 -23 16 -32z m-392 16 c3 -8 -1 -12 -9 -9 -7 2 -15 10 -17 17 -3
8 1 12 9 9 7 -2 15 -10 17 -17z m427 -60 c-4 -31 -3 -51 4 -56 19 -11 12 -71
-10 -96 -13 -15 -19 -18 -16 -8 3 9 1 21 -4 26 -11 11 -15 32 -23 108 -5 44
-4 48 8 32 12 -16 14 -15 19 13 11 52 30 36 22 -19z m-2122 33 c17 -6 11 -48
-9 -65 -11 -9 -18 -8 -30 1 -12 11 -15 11 -12 -1 2 -8 -3 -13 -9 -11 -7 1 -13
-3 -13 -9 0 -6 -9 -9 -19 -6 -11 3 -22 -1 -25 -9 -3 -7 -12 -11 -21 -8 -20 8
-20 54 0 54 8 0 15 7 15 15 0 22 21 18 27 -5 4 -16 8 -18 19 -9 8 6 14 20 14
31 0 10 5 16 10 13 6 -3 10 -1 10 4 0 12 20 14 43 5z m2251 -9 c-4 -8 -8 -15
-10 -15 -2 0 -4 7 -4 15 0 8 4 15 10 15 5 0 7 -7 4 -15z m-1807 -32 c-3 -10
-5 -4 -5 12 0 17 2 24 5 18 2 -7 2 -21 0 -30z m1332 -26 c1 -16 -3 -26 -9 -22
-5 3 -10 25 -9 48 0 33 2 38 9 22 5 -11 9 -33 9 -48z m235 -2 c-5 -26 -10 -33
-17 -26 -8 8 -8 14 1 23 7 7 12 21 12 32 0 10 3 17 6 14 3 -3 2 -23 -2 -43z
m-284 13 c0 -13 3 -40 6 -60 5 -25 3 -38 -5 -38 -6 0 -11 16 -11 38 0 20 -4
44 -9 52 -10 15 -6 30 10 30 5 0 9 -10 9 -22z m-133 -25 c-3 -10 -5 -4 -5 12
0 17 2 24 5 18 2 -7 2 -21 0 -30z m55 6 c-3 -22 -1 -30 7 -25 6 4 11 17 11 29
1 17 4 15 16 -12 15 -36 13 -61 -6 -61 -5 0 -10 7 -10 15 0 8 -7 15 -15 15
-15 0 -22 50 -8 63 10 10 10 9 5 -24z m-25 -31 c-2 -13 -4 -5 -4 17 -1 22 1
32 4 23 2 -10 2 -28 0 -40z m193 32 c0 -5 -2 -10 -4 -10 -3 0 -8 5 -11 10 -3
6 -1 10 4 10 6 0 11 -4 11 -10z m737 -22 c-3 -8 -6 -5 -6 6 -1 11 2 17 5 13 3
-3 4 -12 1 -19z m-2595 -5 c-6 -2 -10 -8 -7 -12 6 -10 -62 -47 -71 -39 -3 4
-3 12 1 18 8 13 63 39 80 39 6 0 4 -3 -3 -6z m1578 -3 c0 -5 -5 -10 -11 -10
-5 0 -7 5 -4 10 3 6 8 10 11 10 2 0 4 -4 4 -10z m1050 0 c0 -5 -4 -10 -10 -10
-5 0 -10 5 -10 10 0 6 5 10 10 10 6 0 10 -4 10 -10z m-814 -37 c-10 -10 -19 5
-10 18 6 11 8 11 12 0 2 -7 1 -15 -2 -18z m-253 5 c4 -10 8 -9 16 2 5 8 12 12
16 9 5 -6 -28 -49 -39 -49 -3 0 -6 9 -6 21 0 11 -4 17 -10 14 -5 -3 -10 -1
-10 4 0 15 27 14 33 -1z m877 -8 c0 -5 -6 -15 -12 -22 -7 -7 -25 -31 -41 -53
-15 -22 -41 -56 -58 -75 l-30 -35 17 35 c9 19 24 40 32 46 8 6 13 18 9 26 -4
11 -1 14 11 11 13 -3 22 8 36 41 16 39 36 54 36 26z m-783 -25 c4 -26 -38 -72
-73 -81 -24 -6 -26 -5 -20 11 4 10 2 21 -5 25 -7 5 -1 18 18 37 33 36 77 40
80 8z m1408 6 c-3 -6 -11 -11 -16 -11 -5 0 -4 6 3 14 14 16 24 13 13 -3z
m-2421 -56 c3 -8 1 -15 -3 -15 -5 0 -11 7 -15 15 -3 8 -1 15 3 15 5 0 11 -7
15 -15z m2746 9 c0 -12 -21 -44 -29 -44 -10 0 -21 37 -13 44 7 8 42 8 42 0z
m-370 -12 c0 -13 -69 -82 -82 -82 -6 0 9 20 33 45 48 48 49 49 49 37z m-3158
-54 c-7 -7 -12 -8 -12 -2 0 14 12 26 19 19 2 -3 -1 -11 -7 -17z m2228 14 c0
-8 -30 -49 -68 -91 -29 -33 -17 -10 27 52 35 48 41 53 41 39z m1033 -87 c-11
-106 -14 -197 -8 -212 8 -16 14 -63 9 -63 -1 0 -14 21 -29 48 -15 26 -41 61
-58 79 -20 22 -28 38 -24 52 3 12 1 19 -4 15 -5 -3 -9 0 -9 5 0 6 5 11 10 11
6 0 10 11 10 25 0 14 6 25 13 25 8 0 22 9 32 20 24 26 61 23 58 -5z m-168 -25
c3 -5 1 -10 -4 -10 -6 0 -11 5 -11 10 0 6 2 10 4 10 3 0 8 -4 11 -10z m282
-37 c-3 -10 -5 -4 -5 12 0 17 2 24 5 18 2 -7 2 -21 0 -30z m-1297 -38 c0 0 -9
-8 -19 -17 -18 -15 -19 -15 -24 1 -3 12 2 17 19 17 13 0 24 0 24 -1z m1556
-55 c-7 -25 -15 -52 -19 -60 -3 -8 -8 -35 -10 -60 l-4 -45 -1 52 c-1 32 6 74
19 108 25 66 32 69 15 5z m-1609 -2 c-3 -7 -5 -2 -5 12 0 14 2 19 5 13 2 -7 2
-19 0 -25z m-1969 -108 c-17 -24 -24 -28 -26 -16 -2 9 7 30 20 48 17 25 24 29
26 16 2 -9 -7 -31 -20 -48z m907 30 c-3 -5 -10 -10 -16 -10 -5 0 -9 5 -9 10 0
6 7 10 16 10 8 0 12 -4 9 -10z m75 3 c-1 -11 -26 -43 -34 -43 -4 0 -4 5 -1 10
3 6 1 10 -4 10 -6 0 -11 5 -11 11 0 6 7 9 15 5 8 -3 15 -1 15 4 0 6 5 10 10
10 6 0 10 -3 10 -7z m2935 -3 c3 -5 1 -10 -4 -10 -6 0 -11 5 -11 10 0 6 2 10
4 10 3 0 8 -4 11 -10z m-2991 -52 c-9 -14 -23 2 -17 18 4 12 8 13 14 3 4 -7 5
-17 3 -21z m3017 15 c13 -16 12 -17 -3 -4 -10 7 -18 15 -18 17 0 8 8 3 21 -13z
m-3856 -72 c-4 -28 -10 -49 -15 -46 -4 3 -10 -2 -14 -10 -3 -8 -17 -15 -30
-15 -39 0 -44 38 -12 89 15 23 32 41 39 41 6 0 4 -5 -5 -11 -28 -16 -21 -30 7
-17 17 8 24 17 20 27 -5 12 -3 13 5 4 8 -7 10 -28 5 -62z m807 37 c-9 -9 -12
-7 -12 12 0 19 3 21 12 12 9 -9 9 -15 0 -24z m-42 -33 c-7 -9 -15 -13 -18 -10
-3 2 1 11 8 20 7 9 15 13 18 10 3 -2 -1 -11 -8 -20z m-990 -104 c-1 -13 -3
-13 -15 3 -19 26 -19 42 0 26 8 -7 15 -20 15 -29z m97 -3 c-3 -7 -5 -2 -5 12
0 14 2 19 5 13 2 -7 2 -19 0 -25z m43 12 c0 -5 -4 -10 -9 -10 -5 0 -12 -8 -14
-17 -3 -11 -5 -7 -6 10 -1 18 4 27 14 27 8 0 15 -4 15 -10z m767 -12 c-3 -8
-6 -5 -6 6 -1 11 2 17 5 13 3 -3 4 -12 1 -19z m986 3 c-3 -11 -14 -21 -24 -24
-18 -5 -18 -3 -7 11 11 15 29 31 35 32 0 0 -1 -9 -4 -19z m-1697 -11 c8 0 14
-5 14 -11 0 -6 -7 -9 -15 -5 -8 3 -15 2 -15 -3 0 -5 9 -11 21 -14 29 -8 18
-31 -16 -35 -25 -3 -27 -2 -16 11 7 9 8 18 3 21 -5 3 -12 15 -15 27 -4 15 -2
19 10 15 8 -3 21 -6 29 -6z m821 -22 c-3 -8 -6 -5 -6 6 -1 11 2 17 5 13 3 -3
4 -12 1 -19z m39 -7 c-12 -19 -24 -12 -19 10 4 13 9 17 15 11 6 -6 7 -15 4
-21z m731 -103 c-58 -82 -66 -92 -74 -85 -3 4 12 28 34 54 22 27 46 58 54 70
7 12 15 20 18 18 2 -3 -12 -29 -32 -57z m-1583 37 c3 -8 1 -15 -4 -15 -6 0
-10 7 -10 15 0 8 2 15 4 15 2 0 6 -7 10 -15z m-125 -11 c26 -13 30 -20 25 -37
-12 -41 -54 -51 -54 -14 0 12 -3 32 -6 45 -7 26 -6 27 35 6z m3978 -16 c-3 -7
-5 -2 -5 12 0 14 2 19 5 13 2 -7 2 -19 0 -25z m-1359 -34 c18 -8 37 -12 42 -9
5 3 20 -1 34 -10 15 -10 25 -12 28 -6 2 7 13 6 30 -4 16 -7 47 -17 70 -20 44
-7 98 -46 111 -79 6 -15 0 -17 -54 -15 -43 2 -63 -2 -70 -12 -5 -8 -9 -10 -9
-4 0 5 -5 4 -12 -3 -7 -7 -21 -12 -31 -12 -14 0 -18 -5 -14 -19 4 -15 0 -19
-17 -18 -21 1 -56 32 -56 49 0 4 -7 8 -15 8 -8 0 -15 5 -15 10 0 6 -5 10 -12
10 -20 0 -78 50 -78 68 0 15 -2 15 -10 2 -6 -9 -13 -11 -17 -5 -5 6 -17 12
-28 14 -35 6 -55 21 -49 36 7 17 3 18 -20 9 -9 -3 -13 -11 -10 -16 4 -6 -4 -8
-17 -6 -20 2 -31 17 -14 18 2 1 20 7 38 15 23 9 37 11 44 4 6 -6 14 -5 21 3
14 17 84 12 130 -8z m-2384 -71 c10 -26 0 -25 -18 1 -13 20 -13 24 -2 20 8 -3
17 -13 20 -21z m1670 5 c-4 -13 -14 -28 -24 -35 -9 -6 -34 -40 -55 -75 -22
-35 -44 -69 -51 -75 -7 -7 -14 -18 -17 -25 -4 -11 -7 -10 -18 0 -9 9 -10 15
-3 20 6 4 14 16 18 27 6 16 9 17 16 5 8 -12 10 -9 10 11 0 14 13 40 30 59 17
18 30 36 30 39 0 8 59 71 66 71 3 0 2 -10 -2 -22z m-1854 -39 c-13 -44 -13
-136 0 -144 6 -3 10 -10 10 -15 0 -13 -37 0 -54 19 -22 24 -7 123 24 156 29
31 32 28 20 -16z m218 -14 c-3 -3 -9 2 -12 12 -6 14 -5 15 5 6 7 -7 10 -15 7
-18z m62 -110 c0 -16 -27 28 -34 55 -5 19 -2 16 13 -10 11 -19 20 -39 21 -45z
m-445 16 c-3 -6 -11 -11 -17 -11 -6 0 -6 6 2 15 14 17 26 13 15 -4z m822 -152
c5 -68 3 -89 -7 -89 -6 0 -10 -6 -7 -13 3 -7 -1 -20 -7 -30 -10 -13 -13 2 -14
86 -1 56 1 120 4 142 6 37 7 38 16 16 4 -13 11 -64 15 -112z m-353 95 c3 -8 2
-12 -4 -9 -6 3 -10 10 -10 16 0 14 7 11 14 -7z m1552 -24 c8 0 12 -5 9 -10 -4
-6 -11 -8 -16 -5 -5 4 -9 -1 -9 -9 0 -9 5 -16 11 -16 5 0 7 -5 4 -10 -13 -21
-32 15 -27 50 3 20 8 27 10 18 2 -10 10 -18 18 -18z m-1978 8 c19 -19 14 -28
-12 -28 -27 0 -41 14 -31 30 8 14 28 13 43 -2z m1790 -30 c-14 -43 -14 -43
-28 -18 -9 17 -9 21 0 15 7 -4 13 1 17 14 3 12 9 21 14 21 4 0 3 -15 -3 -32z
m-1325 -39 c15 -34 26 -63 24 -65 -2 -2 -12 15 -23 38 -10 24 -21 45 -24 48
-11 8 -20 40 -12 40 4 0 20 -28 35 -61z m-43 31 c0 -5 -4 -10 -10 -10 -5 0
-10 5 -10 10 0 6 5 10 10 10 6 0 10 -4 10 -10z m2661 -32 c11 -20 11 -20 -15
-2 -28 21 -34 37 -11 28 9 -4 20 -15 26 -26z m-1346 -48 c-14 -22 -30 -40 -35
-40 -6 0 -10 -6 -10 -13 0 -12 -10 -27 -51 -75 -12 -15 -40 -13 -46 4 -4 12
53 79 68 79 5 0 8 2 7 5 -3 6 39 68 61 91 13 13 17 14 24 3 5 -8 -2 -29 -18
-54z m185 45 c0 -8 -4 -15 -10 -15 -5 0 -7 7 -4 15 4 8 8 15 10 15 2 0 4 -7 4
-15z m40 -35 c0 -19 -13 -40 -25 -40 -14 0 -29 29 -20 38 3 3 5 0 5 -6 0 -7 7
-12 15 -12 8 0 15 5 15 10 0 6 -4 10 -10 10 -5 0 -10 4 -10 10 0 5 7 7 15 4 8
-4 15 -10 15 -14z m345 2 c19 1 207 -31 212 -36 1 -1 4 -16 8 -34 5 -30 2 -33
-47 -62 -29 -16 -60 -30 -68 -30 -9 0 -22 -9 -30 -20 -12 -17 -22 -20 -52 -15
-25 5 -48 2 -68 -8 -16 -9 -30 -11 -30 -6 0 5 -10 8 -22 6 -19 -2 -22 2 -20
21 2 12 -2 38 -8 57 -9 28 -8 40 7 70 21 40 72 77 88 64 6 -4 20 -8 30 -7z
m-1785 -95 c0 -5 -7 -2 -15 7 -8 8 -15 23 -15 33 1 14 4 13 15 -7 8 -14 14
-29 15 -33z m1364 18 c33 -28 32 -29 -13 -14 -17 6 -31 17 -31 25 0 20 11 17
44 -11z m-1108 -51 c-4 -9 -9 -15 -11 -12 -3 3 -3 13 1 22 4 9 9 15 11 12 3
-3 3 -13 -1 -22z m1091 4 c-3 -8 -6 -5 -6 6 -1 11 2 17 5 13 3 -3 4 -12 1 -19z
m-1333 -4 c3 -8 2 -12 -4 -9 -6 3 -10 10 -10 16 0 14 7 11 14 -7z m1280 -9 c3
-8 9 -15 13 -14 4 1 15 1 23 0 11 -1 11 -4 2 -13 -9 -9 -16 -8 -30 5 -10 9
-22 14 -25 10 -4 -3 -7 1 -7 10 0 21 16 22 24 2z m116 -5 c0 -5 -7 -10 -15
-10 -8 0 -15 5 -15 10 0 6 7 10 15 10 8 0 15 -4 15 -10z m40 -39 c0 -6 -7 -8
-15 -5 -8 4 -15 15 -15 26 0 17 2 18 15 4 8 -8 15 -19 15 -25z m-366 14 c3 -8
-1 -21 -9 -29 -8 -7 -11 -17 -7 -21 4 -5 1 -5 -6 -1 -17 10 -44 -13 -38 -31 3
-8 -2 -17 -11 -20 -20 -8 -113 -102 -113 -114 0 -5 -4 -9 -10 -9 -26 0 3 45
97 148 24 26 43 52 43 58 0 14 21 34 36 34 6 0 14 -7 18 -15z m1721 5 c-3 -5
-11 -10 -16 -10 -6 0 -7 5 -4 10 3 6 11 10 16 10 6 0 7 -4 4 -10z m-1475 -35
c11 -13 10 -14 -4 -9 -9 3 -16 10 -16 15 0 13 6 11 20 -6z m76 0 c4 -8 15 -15
25 -15 13 0 19 -7 19 -21 0 -19 -2 -20 -16 -8 -9 7 -25 18 -37 24 -11 5 -22
16 -25 23 -5 17 27 15 34 -3z m-1172 -17 c24 -25 46 -63 45 -78 0 -9 -4 -5
-10 8 -9 24 -29 22 -29 -4 0 -8 -7 -14 -15 -14 -17 0 -20 16 -5 25 6 3 10 15
10 26 0 10 -4 19 -10 19 -5 0 -10 7 -10 15 0 18 7 19 24 3z m1050 -3 c11 -8
15 -15 9 -15 -19 0 -43 12 -43 21 0 13 12 11 34 -6z m-54 -20 c5 3 15 -4 23
-15 8 -12 20 -20 27 -18 7 2 15 -3 17 -10 4 -9 -1 -10 -22 -2 -35 13 -34 13
-27 -12 5 -22 5 -22 -12 -6 -9 10 -15 22 -12 27 4 5 0 16 -8 24 -8 8 -12 18
-8 21 4 4 8 2 10 -3 2 -6 8 -9 12 -6z m-35 -25 c3 -5 1 -10 -4 -10 -6 0 -11 5
-11 10 0 6 2 10 4 10 3 0 8 -4 11 -10z m185 -1 c0 -7 -8 -18 -17 -26 -14 -11
-15 -14 -3 -10 11 3 16 -2 17 -16 2 -15 -1 -17 -10 -8 -16 16 -30 14 -23 -4 3
-8 1 -15 -4 -15 -6 0 -10 -7 -10 -15 0 -8 -4 -15 -10 -15 -5 0 -10 5 -10 12 0
6 -6 4 -13 -7 -19 -25 -35 -12 -35 28 0 25 4 33 19 33 12 0 19 -7 19 -21 0
-16 2 -17 10 -5 5 8 7 24 5 35 -3 11 -2 14 1 8 7 -17 44 2 44 22 0 8 5 15 10
15 6 0 10 -5 10 -11z m-195 -29 c3 -5 14 -10 24 -10 27 0 54 -33 39 -48 -9 -9
-18 -6 -40 15 -15 15 -30 24 -33 21 -6 -6 65 -78 77 -78 5 0 7 -4 3 -9 -8 -14
-48 -4 -61 14 -6 8 -20 15 -31 15 -34 0 -46 24 -23 45 11 10 20 24 20 32 0 15
16 17 25 3z m294 -9 c8 -5 10 -14 6 -21 -5 -9 -4 -11 3 -6 7 4 12 1 12 -8 0
-11 -8 -13 -27 -10 -35 7 -36 8 -28 33 7 23 13 25 34 12z m-1390 -41 c0 -10
-3 -8 -9 5 -12 27 -12 43 0 25 5 -8 9 -22 9 -30z m1341 30 c0 -13 -11 -13 -30
0 -12 8 -11 10 8 10 12 0 22 -4 22 -10z m-1185 -30 c-4 -6 -10 -8 -15 -5 -4 3
-11 -1 -13 -7 -3 -8 -6 -6 -6 5 -1 11 6 17 20 17 11 0 17 -5 14 -10z m883 -42
c6 -13 11 -17 11 -10 1 16 28 16 38 -1 13 -21 71 -47 76 -34 4 14 55 -17 64
-40 7 -19 -13 -32 -38 -26 -11 3 -27 -1 -36 -8 -13 -11 -17 -11 -20 -1 -3 6
-14 12 -24 12 -11 0 -18 3 -16 8 3 4 -6 7 -19 7 -19 0 -22 -4 -17 -22 3 -14 1
-23 -6 -23 -6 0 -11 10 -11 23 0 12 -9 30 -20 40 -11 9 -20 12 -20 6 0 -5 -4
-7 -10 -4 -14 8 -13 35 3 68 15 33 30 34 45 5z m242 1 c0 -5 -4 -9 -10 -9 -5
0 -10 7 -10 16 0 8 5 12 10 9 6 -3 10 -10 10 -16z m-1110 -11 c0 -4 -7 -8 -15
-8 -8 0 -15 4 -15 8 0 5 7 9 15 9 8 0 15 -4 15 -9z m-141 -43 c0 -5 -4 -3 -9
5 -5 8 -9 22 -9 30 0 16 17 -16 18 -35z m1391 -8 c0 -4 -9 -2 -20 5 -11 7 -20
22 -20 33 0 18 2 18 20 -5 11 -14 20 -28 20 -33z m1485 13 c10 -11 27 -22 37
-26 18 -5 20 -12 13 -73 -6 -55 -14 -76 -49 -125 -22 -33 -45 -58 -51 -55 -5
2 -9 7 -7 12 1 4 -3 7 -9 7 -7 0 -10 15 -7 39 3 31 1 37 -9 29 -7 -6 -13 -19
-13 -29 0 -24 -19 -34 -26 -15 -3 9 7 48 22 88 16 40 27 76 26 81 -3 11 37 87
47 87 4 0 16 -9 26 -20z m-2775 -31 c0 -11 -7 -19 -15 -19 -10 0 -15 10 -15
31 0 27 2 30 15 19 8 -7 15 -21 15 -31z m41 14 c6 -36 3 -60 -7 -56 -17 6 -24
63 -7 63 7 0 14 -3 14 -7z m2006 -8 c8 -9 13 -18 11 -21 -3 -2 -13 5 -23 16
-21 23 -11 27 12 5z m-2123 -48 c4 -19 3 -26 -4 -22 -5 3 -10 18 -10 32 0 32
5 28 14 -10z m907 13 c5 0 9 -7 9 -15 0 -9 -6 -12 -15 -9 -8 4 -15 1 -15 -5 0
-6 9 -11 20 -11 11 0 20 -4 20 -9 0 -4 11 -7 24 -6 14 2 27 -3 30 -11 4 -11
-5 -14 -37 -14 -37 -1 -40 -2 -24 -14 9 -7 17 -16 17 -20 0 -4 -8 -6 -17 -5
-29 4 -63 -11 -64 -29 -1 -15 -2 -15 -6 1 -5 19 -14 22 -28 8 -6 -6 -11 -1
-11 14 -1 14 2 22 7 19 5 -3 9 2 9 11 0 10 5 13 12 9 19 -12 58 -14 58 -3 0 5
-3 8 -7 7 -5 -2 -19 5 -33 15 -23 17 -24 19 -7 31 9 7 17 21 17 31 0 11 5 15
16 11 9 -3 20 -6 25 -6z m-841 -23 c0 -26 -9 -39 -20 -32 -10 6 0 55 11 55 5
0 9 -10 9 -23z m30 -12 c0 -5 -5 -3 -10 5 -5 8 -10 20 -10 25 0 6 5 3 10 -5 5
-8 10 -19 10 -25z m965 10 c17 -20 45 -26 45 -10 0 10 9 14 25 13 16 -2 24 -7
21 -15 -3 -7 -1 -15 4 -18 6 -4 10 1 10 9 0 9 5 16 11 16 6 0 9 -6 6 -12 -2
-7 0 -21 5 -31 8 -15 5 -17 -24 -14 -19 2 -38 6 -43 9 -15 9 -51 -7 -37 -16 7
-4 12 -11 12 -17 0 -14 -30 -11 -31 4 -1 6 -2 17 -4 22 -1 6 -3 18 -3 28 -1
11 -9 17 -19 15 -12 -2 -19 4 -21 19 -3 18 0 22 15 17 10 -4 23 -12 28 -19z
m-889 -52 c-11 -12 -27 13 -20 32 7 17 8 17 17 -3 6 -12 7 -25 3 -29z m-86
-13 c0 -5 -9 -10 -20 -10 -11 0 -20 5 -20 10 0 6 9 10 20 10 11 0 20 -4 20
-10z m950 1 c0 -5 -10 -12 -22 -16 -14 -4 -18 -8 -10 -12 18 -7 15 -34 -3 -27
-8 4 -15 12 -15 20 0 8 -4 14 -10 14 -5 0 -10 4 -10 10 0 5 7 7 15 4 8 -4 15
-1 15 5 0 6 9 11 20 11 11 0 20 -4 20 -9z m1854 -157 c-31 -46 -60 -84 -64
-84 -11 0 23 65 66 125 22 30 33 56 30 68 -2 10 -2 26 2 35 4 12 9 5 14 -21 8
-36 4 -45 -48 -123z m-1714 136 c8 -5 11 -12 8 -16 -10 -9 -38 3 -38 16 0 12
10 13 30 0z m1950 0 c0 -5 -2 -10 -4 -10 -3 0 -8 5 -11 10 -3 6 -1 10 4 10 6
0 11 -4 11 -10z m-2754 -117 c-4 -4 -11 -2 -15 6 -6 10 -10 9 -15 -4 -8 -21
-26 -10 -26 16 0 11 5 17 10 14 13 -8 13 8 -1 22 -6 6 -8 21 -4 34 7 22 10 19
33 -28 14 -29 23 -56 18 -60z m754 91 c0 -8 -4 -12 -10 -9 -5 3 -10 10 -10 16
0 5 5 9 10 9 6 0 10 -7 10 -16z m-473 -36 c-15 -9 -47 9 -47 27 0 12 5 11 29
-3 19 -10 25 -19 18 -24z m393 32 c0 -5 -4 -10 -10 -10 -5 0 -10 5 -10 10 0 6
5 10 10 10 6 0 10 -4 10 -10z m180 -1 c0 -5 8 -9 18 -9 22 0 42 -19 42 -39 0
-12 -3 -12 -18 2 -12 11 -22 13 -35 6 -13 -8 -22 -7 -33 1 -21 18 -17 45 6 47
11 1 20 -2 20 -8z m1388 -9 c-7 -11 -16 -20 -20 -20 -5 0 -3 9 4 20 7 11 16
20 20 20 5 0 3 -9 -4 -20z m-1438 -5 c0 -8 -4 -15 -10 -15 -5 0 -10 7 -10 15
0 8 5 15 10 15 6 0 10 -7 10 -15z m1720 -13 c0 -21 -70 -116 -78 -107 -9 9 60
125 75 125 1 0 3 -8 3 -18z m-2609 -15 c-10 -9 -11 -8 -5 6 3 10 9 15 12 12 3
-3 0 -11 -7 -18z m609 13 c0 -5 -4 -10 -10 -10 -5 0 -10 5 -10 10 0 6 5 10 10
10 6 0 10 -4 10 -10z m1769 -50 c-12 -22 -25 -38 -27 -35 -5 4 37 75 44 75 3
0 -5 -18 -17 -40z m115 -41 c-11 -18 -36 29 -28 54 7 21 8 20 21 -11 7 -18 11
-38 7 -43z m-62 33 c-10 -24 -102 -161 -113 -168 -21 -12 1 30 88 174 16 25
36 21 25 -6z m-2574 -40 c-7 -29 -16 -52 -19 -52 -13 0 -3 71 11 80 8 5 11 10
7 10 -5 0 -5 5 -2 11 14 21 15 1 3 -49z m328 -20 c-14 -14 -16 -14 -16 -1 0
20 23 44 29 28 2 -6 -4 -18 -13 -27z m2274 13 c0 -15 -13 -39 -32 -59 -18 -18
-46 -50 -63 -70 -55 -68 -65 -79 -65 -69 0 5 27 51 61 103 33 51 63 99 66 107
9 23 33 14 33 -12z m25 -70 c-21 -25 -40 -43 -43 -41 -6 6 17 42 48 74 38 40
34 15 -5 -33z m31 -20 c-23 -36 -116 -129 -116 -117 0 5 14 24 30 42 17 18 30
35 30 38 0 9 54 61 64 62 4 0 1 -11 -8 -25z m-2662 -9 c-7 -19 -25 -17 -32 4
-3 9 1 11 12 7 9 -4 16 -1 16 5 0 6 2 9 5 6 3 -3 3 -13 -1 -22z m2253 -38 c-3
-7 -5 -2 -5 12 0 14 2 19 5 13 2 -7 2 -19 0 -25z m893 23 c0 -4 -11 -6 -25 -3
-14 2 -25 6 -25 8 0 2 11 4 25 4 14 0 25 -4 25 -9z m-580 -32 c-7 -11 -14 -19
-16 -16 -7 7 7 37 17 37 6 0 5 -9 -1 -21z m-2245 -8 c-3 -6 -11 -11 -17 -11
-6 0 -6 6 2 15 14 17 26 13 15 -4z m2375 -5 c0 -7 -9 -21 -20 -31 -18 -16 -20
-17 -20 -1 0 22 22 56 32 50 4 -3 8 -11 8 -18z m-520 4 c0 -5 -4 -10 -10 -10
-5 0 -10 5 -10 10 0 6 5 10 10 10 6 0 10 -4 10 -10z m107 -32 c-3 -8 -6 -5 -6
6 -1 11 2 17 5 13 3 -3 4 -12 1 -19z m1078 12 c-28 -12 -37 -12 -30 0 3 6 16
10 28 9 21 0 21 -1 2 -9z m-831 -15 c-4 -8 -11 -15 -16 -15 -6 0 -5 6 2 15 7
8 14 15 16 15 2 0 1 -7 -2 -15z m-2234 -10 c0 -8 -4 -15 -9 -15 -5 0 -11 -9
-14 -20 -4 -14 -14 -20 -33 -20 l-28 0 34 35 c37 38 50 43 50 20z m3005 5 c-3
-5 -12 -10 -18 -10 -7 0 -6 4 3 10 19 12 23 12 15 0z m-3381 -9 c3 -5 0 -14
-8 -20 -11 -9 -15 -7 -19 9 -5 20 16 29 27 11z m2689 -6 c-3 -9 -8 -14 -10
-11 -3 3 -2 9 2 15 9 16 15 13 8 -4z m25 -20 c-10 -23 -28 -34 -28 -18 0 7 31
43 36 43 2 0 -2 -11 -8 -25z m402 -17 c0 -5 -4 -8 -10 -8 -5 0 -10 10 -10 23
0 18 2 19 10 7 5 -8 10 -18 10 -22z m-598 -30 c-7 -7 -12 -8 -12 -2 0 14 12
26 19 19 2 -3 -1 -11 -7 -17z m-214 -70 c23 -38 40 -68 37 -68 -7 0 -95 136
-95 146 0 12 13 -6 58 -78z m432 53 c-37 -30 -53 -33 -29 -5 11 14 42 31 59
33 2 1 -11 -12 -30 -28z m192 -8 c-25 -35 -72 -79 -72 -68 0 10 73 93 83 94 5
1 -1 -11 -11 -26z m-410 -21 c-5 -14 -3 -15 9 -5 12 10 14 4 14 -38 0 -27 0
-49 -1 -49 -1 0 -11 27 -22 59 -15 45 -17 58 -7 55 8 -3 11 -13 7 -22z m239 0
c-6 -11 -17 -22 -25 -25 -13 -5 -13 -2 -4 18 6 13 15 22 19 19 5 -3 9 0 9 7 0
7 3 10 6 7 3 -4 1 -15 -5 -26z m-51 -46 c0 -8 -7 -16 -15 -20 -12 -4 -13 -2
-2 14 14 24 17 25 17 6z m-2680 -10 c0 -2 -7 -9 -15 -16 -13 -11 -14 -10 -9 4
5 14 24 23 24 12z m3170 -31 c0 -5 -5 -3 -10 5 -5 8 -10 20 -10 25 0 6 5 3 10
-5 5 -8 10 -19 10 -25z m-464 -150 c-14 -14 -16 -14 -16 -2 0 9 6 17 13 20 19
7 21 -1 3 -18z m144 -4 c0 -4 -18 -20 -40 -35 -50 -33 -52 -21 -3 17 40 30 43
31 43 18z m139 -128 c1 -7 -4 -13 -9 -13 -12 0 -17 11 -24 65 l-5 40 19 -40
c10 -22 19 -46 19 -52z m182 10 c-8 -15 -10 -15 -11 -2 0 17 10 32 18 25 2 -3
-1 -13 -7 -23z m-3795 -38 c-3 -8 0 -15 6 -15 13 0 -46 -59 -84 -84 -15 -10
-32 -15 -38 -11 -5 3 -10 -1 -10 -10 0 -9 -4 -14 -9 -10 -5 3 -17 -2 -25 -11
-9 -8 -16 -11 -16 -5 0 7 -8 7 -25 1 -16 -6 -25 -6 -25 0 0 6 11 16 25 22 14
6 25 15 25 20 0 4 6 8 13 8 15 0 146 80 132 80 -5 0 -1 7 9 15 25 19 30 19 22
0z m3781 -7 c-3 -8 -6 -5 -6 6 -1 11 2 17 5 13 3 -3 4 -12 1 -19z m-157 2 c0
-5 -7 -10 -16 -10 -8 0 -12 5 -9 10 3 6 10 10 16 10 5 0 9 -4 9 -10z m-210
-20 c6 -11 9 -20 7 -20 -2 0 -12 9 -22 20 -10 11 -13 20 -7 20 6 0 16 -9 22
-20z m635 1 c-8 -14 -35 -14 -35 0 0 5 4 8 9 4 5 -3 13 0 16 6 4 5 9 8 12 5 3
-2 2 -9 -2 -15z m-405 -55 c0 -18 -2 -17 -15 8 -19 36 -19 42 0 26 8 -7 15
-22 15 -34z m121 -7 c-5 -13 -10 -19 -10 -12 -1 15 10 45 15 40 3 -2 0 -15 -5
-28z m119 16 c-7 -9 -15 -13 -19 -10 -3 3 1 10 9 15 21 14 24 12 10 -5z m-173
-67 c-3 -7 -5 -2 -5 12 0 14 2 19 5 13 2 -7 2 -19 0 -25z m34 -5 c-12 -20 -14
-14 -5 12 4 9 9 14 11 11 3 -2 0 -13 -6 -23z m308 -5 c0 -31 -1 -31 -10 -10
-5 13 -7 28 -3 33 10 16 14 9 13 -23z m-4049 -7 c0 -5 -7 -12 -16 -15 -14 -5
-15 -4 -4 9 14 17 20 19 20 6z m3650 -11 c0 -5 -4 -10 -10 -10 -5 0 -10 5 -10
10 0 6 5 10 10 10 6 0 10 -4 10 -10z m-160 -24 c0 -3 -4 -8 -10 -11 -5 -3 -10
-1 -10 4 0 6 5 11 10 11 6 0 10 -2 10 -4z m-3640 -160 c-14 -14 -24 0 -16 21
6 15 8 15 16 3 6 -9 5 -19 0 -24z m10 -66 c0 -5 -8 -10 -17 -10 -15 0 -16 2
-3 10 19 12 20 12 20 0z m-30 -30 c0 -5 -7 -10 -15 -10 -8 0 -15 5 -15 10 0 6
7 10 15 10 8 0 15 -4 15 -10z m4220 -28 c0 -5 -7 -17 -16 -28 -8 -10 -14 -14
-11 -9 2 6 7 18 10 28 7 17 17 23 17 9z m-4030 -101 c0 -12 -56 -25 -70 -16
-6 3 -8 11 -5 16 8 12 75 12 75 0z m-100 -71 c0 -5 -2 -10 -4 -10 -3 0 -8 5
-11 10 -3 6 -1 10 4 10 6 0 11 -4 11 -10z m30 -35 c-7 -8 -16 -15 -21 -15 -5
0 -34 -21 -65 -46 -31 -25 -58 -43 -61 -41 -6 6 39 78 58 94 16 12 43 20 78
22 20 1 21 -1 11 -14z m40 -30 c0 -7 6 -16 13 -19 10 -5 10 -7 0 -12 -7 -3
-13 -13 -13 -21 0 -9 -6 -13 -15 -9 -18 7 -45 -3 -45 -16 0 -6 7 -8 15 -4 20
7 19 -3 -2 -26 -9 -10 -26 -18 -37 -18 -20 1 -20 2 -3 14 9 7 17 16 17 20 0
12 -23 6 -41 -10 -18 -16 -44 -11 -34 7 3 5 -2 6 -12 3 -13 -4 -11 0 6 13 13
10 36 30 52 46 50 50 99 66 99 32z m-200 -30 c-13 -14 -26 -23 -28 -20 -4 4
38 44 47 45 3 0 -6 -11 -19 -25z m216 -93 c-12 -11 -18 7 -10 30 l8 23 4 -23
c2 -13 1 -26 -2 -30z m-126 -17 c0 -2 -7 -5 -15 -9 -9 -3 -15 0 -15 9 0 9 6
12 15 9 8 -4 15 -7 15 -9z m63 -16 c-6 -6 -19 -9 -29 -6 -17 3 -16 5 6 14 28
12 39 8 23 -8z m-3 -28 c23 -1 24 -3 8 -15 -10 -7 -18 -18 -18 -25 0 -6 -4
-11 -10 -11 -5 0 -10 -7 -10 -16 0 -13 3 -14 13 -5 8 6 17 8 20 4 13 -13 7
-20 -15 -19 -13 1 -39 -6 -59 -16 -37 -17 -37 -17 -44 5 -4 12 -8 25 -9 29 0
3 -4 10 -8 14 -14 13 -9 44 5 38 8 -3 19 1 25 8 10 13 36 15 102 9z m3470
-371 c0 -5 -5 -10 -11 -10 -5 0 -7 5 -4 10 3 6 8 10 11 10 2 0 4 -4 4 -10z
m-80 -4 c0 -3 -4 -8 -10 -11 -5 -3 -10 -1 -10 4 0 6 5 11 10 11 6 0 10 -2 10
-4z m220 -130 c0 -2 -7 -7 -16 -10 -8 -3 -12 -2 -9 4 6 10 25 14 25 6z m-87
-61 c-3 -9 -8 -14 -10 -11 -3 3 -2 9 2 15 9 16 15 13 8 -4z m95 -5 c-7 -11
-15 -15 -17 -9 -2 6 3 15 10 20 20 12 21 11 7 -11z m45 -34 c-15 -18 -30 -32
-33 -30 -3 1 -6 -14 -7 -34 -2 -27 0 -33 7 -22 5 8 10 11 10 6 0 -4 12 -1 26
9 14 9 28 15 30 12 3 -2 -7 -12 -21 -21 -26 -17 -27 -34 -10 -124 5 -23 4 -24
-4 -7 -5 11 -12 29 -15 39 -6 19 -7 19 -21 0 -8 -10 -15 -14 -15 -8 0 5 4 14
9 20 5 5 12 20 16 34 7 22 3 19 -30 -15 -35 -38 -36 -38 -12 -5 23 32 25 40
16 84 -5 27 -8 50 -7 50 2 1 21 11 43 23 52 29 52 29 18 -11z m114 -80 c-18
-14 -18 -14 0 -19 14 -4 13 -5 -5 -6 -12 0 -34 -8 -47 -17 -14 -9 -25 -12 -25
-6 0 6 -10 8 -22 5 -21 -4 -20 -2 7 21 26 22 48 31 95 34 11 1 11 -2 -3 -12z
m28 -66 c3 -5 1 -10 -4 -10 -6 0 -11 5 -11 10 0 6 2 10 4 10 3 0 8 -4 11 -10z
m-244 -67 c-12 -20 -14 -14 -5 12 4 9 9 14 11 11 3 -2 0 -13 -6 -23z m244 20
c-11 -3 -31 -14 -44 -24 -13 -10 -27 -16 -32 -13 -23 14 26 43 71 42 20 0 21
-1 5 -5z m-199 -29 c-4 -9 -9 -15 -11 -12 -3 3 -3 13 1 22 4 9 9 15 11 12 3
-3 3 -13 -1 -22z m-64 -66 c-6 -24 -13 -52 -16 -63 -2 -13 -4 -9 -5 10 -1 35
18 109 26 101 3 -3 1 -25 -5 -48z m474 -154 c18 -14 18 -14 -6 -3 -31 14 -36
19 -24 19 6 0 19 -7 30 -16z m-26 -25 l25 -20 -32 16 c-18 8 -33 18 -33 20 0
10 16 4 40 -16z m95 -139 c3 -5 -4 -6 -15 -3 -11 3 -22 9 -25 13 -3 5 4 6 15
3 11 -3 22 -9 25 -13z m-71 -469 c8 -7 16 -21 19 -32 5 -19 4 -20 -12 -5 -10
9 -28 16 -42 16 -20 0 -21 2 -9 11 12 9 10 10 -8 6 -17 -4 -25 0 -31 16 -5 12
-7 25 -5 28 4 7 65 -21 88 -40z m60 -14 c15 -24 -3 -35 -20 -13 -8 11 -14 24
-14 29 0 13 22 3 34 -16z m33 -224 c-3 -10 -5 -4 -5 12 0 17 2 24 5 18 2 -7 2
-21 0 -30z m-38 -320 c-5 -25 -12 -49 -15 -52 -7 -6 5 79 13 92 9 16 10 5 2
-40z m-542 -245 c-3 -8 -6 -5 -6 6 -1 11 2 17 5 13 3 -3 4 -12 1 -19z m0 -40
c-3 -8 -6 -5 -6 6 -1 11 2 17 5 13 3 -3 4 -12 1 -19z m-410 -110 c-3 -8 -6 -5
-6 6 -1 11 2 17 5 13 3 -3 4 -12 1 -19z m446 -28 c3 -11 1 -20 -4 -20 -5 0 -9
9 -9 20 0 11 2 20 4 20 2 0 6 -9 9 -20z m-2638 -35 c0 -16 -6 -25 -15 -25 -9
0 -26 -7 -38 -16 -38 -26 -38 -7 -1 30 41 42 54 44 54 11z m2612 3 c-3 -8 -6
-5 -6 6 -1 11 2 17 5 13 3 -3 4 -12 1 -19z m53 -18 c6 -11 8 -20 6 -20 -3 0
-10 9 -16 20 -6 11 -8 20 -6 20 3 0 10 -9 16 -20z m-2760 -15 c-7 -8 -17 -15
-22 -15 -6 0 -5 7 2 15 7 8 17 15 22 15 6 0 5 -7 -2 -15z m2232 -67 c-6 -6
-15 -8 -19 -4 -4 4 -1 11 7 16 19 12 27 3 12 -12z m-2412 -62 c0 -2 -8 -10
-17 -17 -16 -13 -17 -12 -4 4 13 16 21 21 21 13z m33 -106 c5 -8 -5 1 -22 20
-17 19 -31 38 -31 43 0 9 32 -29 53 -63z m3287 60 c0 -5 -4 -10 -10 -10 -5 0
-10 5 -10 10 0 6 5 10 10 10 6 0 10 -4 10 -10z m-3255 -100 c3 -5 1 -10 -4
-10 -6 0 -11 5 -11 10 0 6 2 10 4 10 3 0 8 -4 11 -10z m315 -211 c0 -10 -59
-23 -67 -15 -4 3 -1 6 6 6 7 0 10 4 7 8 -3 5 8 9 24 9 17 0 30 -4 30 -8z
m3060 -133 c0 -12 -5 -7 -19 24 -11 24 -11 24 3 6 9 -11 16 -24 16 -30z m-749
-13 c-8 -15 -10 -15 -11 -2 0 17 10 32 18 25 2 -3 -1 -13 -7 -23z m541 -65 c3
-26 2 -45 -3 -42 -14 8 -11 -63 6 -141 21 -101 19 -214 -7 -315 -11 -47 -24
-87 -28 -90 -11 -8 -42 -73 -50 -105 l-8 -30 -1 28 c-1 18 -5 26 -12 21 -8 -5
-9 3 -3 27 11 41 12 407 2 464 -11 63 9 18 28 -61 18 -78 21 -291 4 -308 -5
-5 -10 -21 -10 -35 0 -38 15 -15 38 60 32 100 38 150 20 163 -8 6 -18 34 -22
62 -3 28 -20 92 -36 144 -17 51 -29 94 -28 96 2 1 17 -29 33 -68 34 -81 32
-85 56 87 7 52 13 94 14 92 1 -1 5 -23 7 -49z m44 -187 c5 -39 3 -53 -4 -46
-11 11 -32 114 -31 154 1 41 28 -41 35 -108z m93 19 c5 -29 5 -65 0 -79 -8
-24 -9 -24 -6 7 2 17 0 32 -5 32 -4 0 -7 23 -7 50 2 62 7 59 18 -10z m-1115
-35 c-9 -14 -18 -25 -21 -25 -5 0 5 18 20 38 17 22 18 13 1 -13z m27 -22 c-12
-20 -14 -14 -5 12 4 9 9 14 11 11 3 -2 0 -13 -6 -23z m456 -5 c-3 -7 -5 -2 -5
12 0 14 2 19 5 13 2 -7 2 -19 0 -25z m272 -31 c-1 -29 -4 -41 -6 -27 -3 14 -8
29 -12 33 -11 11 -1 58 10 51 5 -3 8 -29 8 -57z m75 48 c-4 -8 -8 -15 -10 -15
-2 0 -4 7 -4 15 0 8 4 15 10 15 5 0 7 -7 4 -15z m193 -82 c-3 -10 -5 -2 -5 17
0 19 2 27 5 18 2 -10 2 -26 0 -35z m-607 17 c0 -11 -4 -20 -9 -20 -5 0 -7 9
-4 20 3 11 7 20 9 20 2 0 4 -9 4 -20z m239 -33 c-7 -15 -15 -24 -20 -22 -4 3
-5 -5 -1 -17 3 -13 1 -19 -5 -15 -6 4 -10 -1 -9 -11 0 -10 -5 -16 -13 -14 -8
2 -11 -3 -8 -13 4 -8 2 -15 -3 -15 -6 0 -10 -5 -10 -10 0 -7 7 -7 21 0 11 7
23 9 26 7 2 -3 -5 -8 -16 -12 -11 -3 -23 -15 -26 -26 -4 -10 -14 -19 -22 -19
-9 0 -14 -3 -10 -6 11 -11 -23 -84 -77 -166 -67 -100 -95 -137 -68 -88 11 19
43 80 73 135 29 55 58 103 63 107 7 5 6 8 -3 8 -11 0 -11 4 2 18 10 10 17 22
17 27 0 21 72 155 81 150 5 -4 9 -1 9 6 0 7 2 10 5 7 3 -3 0 -17 -6 -31z m458
1 c-3 -8 -6 -5 -6 6 -1 11 2 17 5 13 3 -3 4 -12 1 -19z m-260 -40 c-2 -13 -4
-5 -4 17 -1 22 1 32 4 23 2 -10 2 -28 0 -40z m210 20 c-3 -8 -6 -5 -6 6 -1 11
2 17 5 13 3 -3 4 -12 1 -19z m-322 -90 c-3 -57 -9 -119 -14 -138 -8 -33 -9
-31 -10 25 -1 53 18 215 25 215 2 0 1 -46 -1 -102z m290 -79 c-13 -30 -25 -62
-25 -71 0 -9 -6 -21 -13 -25 -8 -4 -26 -34 -41 -66 -25 -54 -26 -64 -24 -182
l3 -124 58 65 c31 36 57 62 57 58 0 -11 -47 -70 -86 -108 -23 -22 -34 -42 -34
-62 0 -16 -3 -39 -6 -52 -12 -44 -29 -14 -36 64 -7 81 -2 138 11 129 5 -2 6 8
4 23 -3 23 -2 24 6 7 8 -16 10 -9 10 30 l1 50 -26 -50 c-15 -27 -32 -75 -38
-105 l-12 -55 -8 81 c-6 72 -5 86 13 120 l21 39 0 -33 c0 -17 -3 -32 -7 -32
-5 0 -9 -11 -9 -24 -3 -42 21 -19 33 32 22 95 149 370 164 355 6 -6 0 -30 -16
-64z m-755 11 c-6 -11 -13 -20 -16 -20 -2 0 0 9 6 20 6 11 13 20 16 20 2 0 0
-9 -6 -20z m551 -131 c-8 -19 -10 -6 -10 57 -1 44 2 84 7 88 11 12 14 -117 3
-145z m-317 117 c-3 -9 -10 -13 -15 -10 -5 3 -3 11 4 19 15 16 19 13 11 -9z
m-261 -36 c-3 -11 -10 -23 -16 -27 -5 -3 -8 -2 -5 3 3 5 8 17 11 27 9 24 16
22 10 -3z m880 0 c3 -11 1 -18 -4 -14 -5 3 -9 12 -9 20 0 20 7 17 13 -6z
m-640 -5 c-3 -9 -8 -14 -10 -11 -3 3 -2 9 2 15 9 16 15 13 8 -4z m612 -6 c-10
-15 -25 -10 -19 6 4 8 10 12 15 9 5 -3 7 -10 4 -15z m-978 -11 c-3 -8 -6 -5
-6 6 -1 11 2 17 5 13 3 -3 4 -12 1 -19z m495 -15 c-6 -10 -13 -40 -17 -68 -4
-27 -14 -62 -21 -76 -7 -14 -16 -50 -20 -80 -7 -47 -9 -50 -14 -24 -8 42 62
286 77 271 3 -2 0 -13 -5 -23z m505 -70 c-3 -10 -5 -4 -5 12 0 17 2 24 5 18 2
-7 2 -21 0 -30z m50 15 c-3 -8 -6 -5 -6 6 -1 11 2 17 5 13 3 -3 4 -12 1 -19z
m-1290 -40 c-3 -8 -6 -5 -6 6 -1 11 2 17 5 13 3 -3 4 -12 1 -19z m-60 -65 c-3
-10 -5 -2 -5 17 0 19 2 27 5 18 2 -10 2 -26 0 -35z m285 15 c-7 -7 -12 -8 -12
-2 0 6 3 14 7 17 3 4 9 5 12 2 2 -3 -1 -11 -7 -17z m-305 -90 c-2 -13 -4 -5
-4 17 -1 22 1 32 4 23 2 -10 2 -28 0 -40z m553 -17 c-16 -31 -32 -36 -18 -7 6
14 15 26 20 26 5 0 4 -9 -2 -19z m-484 -48 c-9 -52 -37 -135 -43 -130 -2 3 2
29 11 59 8 29 18 65 21 81 8 41 18 32 11 -10z m-1309 -5 c-3 -8 -6 -5 -6 6 -1
11 2 17 5 13 3 -3 4 -12 1 -19z m1908 -37 c-15 -14 -24 -19 -19 -11 25 42 39
59 43 49 2 -6 -9 -23 -24 -38z m-558 7 c-3 -8 -6 -5 -6 6 -1 11 2 17 5 13 3
-3 4 -12 1 -19z m-168 -48 c0 -10 -3 -8 -9 5 -12 27 -12 43 0 25 5 -8 9 -22 9
-30z m561 10 c5 0 7 -7 4 -15 -5 -12 -10 -13 -20 -4 -11 9 -14 7 -14 -10 0
-11 5 -21 10 -21 6 0 10 -8 10 -19 0 -12 -9 -20 -25 -23 -21 -4 -25 -1 -25 19
0 23 -3 24 -32 17 -18 -3 -48 -18 -66 -32 -23 -17 -31 -20 -26 -8 7 17 102 73
117 68 14 -4 47 28 48 47 1 13 2 13 6 -1 2 -10 8 -18 13 -18z m100 -11 c0 -6
7 -8 18 -5 15 6 15 5 2 -8 -17 -16 -79 -35 -97 -29 -19 7 -16 23 5 23 9 0 26
7 36 15 24 18 36 19 36 4z m-740 -24 c20 -24 6 -28 -15 -5 -10 11 -13 20 -8
20 6 0 16 -7 23 -15z m345 -24 c3 -5 1 -12 -5 -16 -5 -3 -10 1 -10 9 0 18 6
21 15 7z m30 -22 c-6 -33 -15 -36 -15 -6 0 15 4 27 9 27 6 0 8 -10 6 -21z
m455 6 c-7 -8 -17 -15 -22 -15 -6 0 -5 7 2 15 7 8 17 15 22 15 6 0 5 -7 -2
-15z m-275 -25 c3 -5 1 -10 -4 -10 -6 0 -11 5 -11 10 0 6 2 10 4 10 3 0 8 -4
11 -10z m305 6 c0 -3 -4 -8 -10 -11 -5 -3 -10 -1 -10 4 0 6 5 11 10 11 6 0 10
-2 10 -4z m-186 -21 c3 -8 1 -15 -4 -15 -6 0 -10 7 -10 15 0 8 2 15 4 15 2 0
6 -7 10 -15z m-38 -22 c-10 -10 -19 5 -10 18 6 11 8 11 12 0 2 -7 1 -15 -2
-18z m-432 3 c-3 -8 -12 -17 -20 -20 -12 -4 -12 -2 -4 14 12 23 32 27 24 6z
m981 -26 c3 -5 -1 -10 -10 -10 -9 0 -13 5 -10 10 3 6 8 10 10 10 2 0 7 -4 10
-10z m-45 -10 c0 -5 -5 -10 -11 -10 -5 0 -7 5 -4 10 3 6 8 10 11 10 2 0 4 -4
4 -10z m-990 -40 c18 -12 2 -12 -25 0 -13 6 -15 9 -5 9 8 0 22 -4 30 -9z
m1380 -104 c0 -11 -19 -15 -25 -6 -3 5 1 10 9 10 9 0 16 -2 16 -4z"/>
<path d="M2785 10560 c3 -5 8 -10 11 -10 2 0 4 5 4 10 0 6 -5 10 -11 10 -5 0
-7 -4 -4 -10z"/>
<path d="M3121 10366 c-8 -9 -29 -16 -48 -16 -20 0 -32 -4 -28 -10 3 -6 -1 -7
-10 -4 -8 4 -22 1 -29 -5 -8 -7 -23 -11 -33 -9 -11 2 -18 -3 -18 -12 0 -8 -11
-23 -23 -34 -19 -15 -21 -21 -10 -27 10 -7 9 -9 -4 -9 -10 0 -19 -6 -19 -12
-3 -29 -4 -33 -14 -36 -13 -4 -38 -52 -31 -60 4 -3 19 3 34 14 45 33 50 35 65
20 12 -12 18 -11 45 6 18 11 32 24 32 30 0 5 5 6 12 2 8 -5 9 -2 5 10 -4 9 -3
15 1 12 4 -2 30 18 57 45 27 27 52 49 57 49 4 0 8 6 8 14 0 8 6 16 13 19 16 6
8 14 -24 22 -17 4 -30 1 -38 -9z"/>
<path d="M3925 10783 c-3 -14 -4 -28 0 -31 3 -3 5 3 5 13 0 10 3 15 7 12 6 -7
33 11 33 22 0 4 -9 7 -19 8 -13 1 -21 -7 -26 -24z"/>
<path d="M4695 8910 c-20 -39 -38 -86 -30 -78 10 10 55 108 50 108 -3 0 -11
-13 -20 -30z"/>
<path d="M1230 7030 c-13 -8 -13 -10 2 -10 9 0 20 5 23 10 8 13 -5 13 -25 0z"/>
<path d="M1200 7000 c0 -5 4 -10 9 -10 6 0 13 5 16 10 3 6 -1 10 -9 10 -9 0
-16 -4 -16 -10z"/>
<path d="M5135 3428 c-4 -24 -2 -54 4 -68 8 -21 10 -13 10 43 1 76 -5 87 -14
25z"/>
<path d="M1584 11603 c-14 -10 1 -57 15 -48 19 11 22 -15 5 -44 -13 -22 -14
-32 -6 -47 7 -12 12 -14 12 -5 0 11 3 11 15 1 20 -17 19 -1 -2 22 -22 25 2 23
27 -2 l20 -20 0 21 c0 19 2 20 17 8 15 -12 16 -12 10 4 -20 50 -20 53 -3 32
17 -19 17 -19 12 10 -6 28 -5 29 9 11 14 -19 15 -19 16 10 1 16 3 22 6 12 6
-22 19 -23 27 -3 3 8 1 15 -4 15 -6 0 -10 7 -10 15 0 11 -10 14 -40 13 -22 -1
-40 -6 -40 -11 0 -5 -7 -6 -16 -3 -33 13 -59 16 -70 9z"/>
<path d="M5165 11588 c39 -20 79 -59 112 -105 9 -13 26 -23 40 -23 13 0 22 -4
18 -9 -7 -13 32 -34 47 -25 6 4 9 1 6 -7 -2 -8 -25 -21 -51 -29 -75 -25 -72
-31 26 -44 l37 -5 0 135 0 134 -137 0 -138 -1 40 -21z"/>
<path d="M2050 11561 c0 -5 7 -12 16 -15 14 -5 15 -4 4 9 -14 17 -20 19 -20 6z"/>
<path d="M2100 11543 c0 -5 5 -15 10 -23 8 -12 10 -11 10 8 0 12 -4 22 -10 22
-5 0 -10 -3 -10 -7z"/>
<path d="M2037 11510 c-7 -34 1 -88 14 -96 7 -4 1 115 -6 124 -1 1 -5 -11 -8
-28z"/>
<path d="M2072 11495 c0 -16 2 -22 5 -12 2 9 2 23 0 30 -3 6 -5 -1 -5 -18z"/>
<path d="M3220 11461 c0 -5 5 -13 10 -16 6 -3 10 -2 10 4 0 5 -4 13 -10 16 -5
3 -10 2 -10 -4z"/>
<path d="M5095 11439 c-4 -6 -5 -12 -2 -15 2 -3 7 2 10 11 7 17 1 20 -8 4z"/>
<path d="M4988 11394 c-16 -8 -28 -18 -28 -23 0 -4 -19 -16 -42 -25 -24 -10
-38 -20 -31 -23 14 -5 103 45 103 58 0 5 7 9 15 9 8 0 15 5 15 10 0 12 1 12
-32 -6z"/>
<path d="M4821 11384 c0 -11 3 -14 6 -6 3 7 2 16 -1 19 -3 4 -6 -2 -5 -13z"/>
<path d="M5178 11333 c7 -3 16 -2 19 1 4 3 -2 6 -13 5 -11 0 -14 -3 -6 -6z"/>
<path d="M2926 11275 c-9 -26 -7 -32 5 -12 6 10 9 21 6 23 -2 3 -7 -2 -11 -11z"/>
<path d="M4870 11270 c0 -5 5 -10 10 -10 6 0 10 5 10 10 0 6 -4 10 -10 10 -5
0 -10 -4 -10 -10z"/>
<path d="M2366 11227 c3 -10 9 -15 12 -12 3 3 0 11 -7 18 -10 9 -11 8 -5 -6z"/>
<path d="M2450 11145 c0 -8 2 -15 4 -15 2 0 6 7 10 15 3 8 1 15 -4 15 -6 0
-10 -7 -10 -15z"/>
<path d="M2482 11111 c-8 -5 -9 -16 -2 -40 5 -19 7 -38 4 -43 -3 -5 -3 -20 0
-34 6 -23 8 -24 23 -9 12 12 13 19 5 24 -9 5 -8 12 3 27 8 10 15 32 15 48 0
25 -2 27 -17 15 -10 -8 -14 -9 -10 -2 9 15 -5 24 -21 14z"/>
<path d="M2402 11060 c0 -14 2 -19 5 -12 2 6 2 18 0 25 -3 6 -5 1 -5 -13z"/>
<path d="M5070 11037 c0 -38 -5 -49 -27 -66 -35 -26 -23 -36 56 -46 31 -4 64
-11 74 -17 34 -18 122 -37 127 -27 4 5 7 47 9 94 l2 85 -53 1 c-29 1 -70 2
-90 3 -31 2 -38 -1 -38 -15 0 -10 -5 -21 -11 -24 -6 -4 -9 4 -7 22 2 23 -1 29
-19 31 -21 3 -23 -1 -23 -41z"/>
<path d="M2421 11044 c0 -11 3 -14 6 -6 3 7 2 16 -1 19 -3 4 -6 -2 -5 -13z"/>
<path d="M5325 11048 c-2 -7 -5 -53 -7 -103 -3 -89 -3 -89 29 -122 18 -18 33
-41 33 -53 0 -11 5 -20 10 -20 6 0 10 22 10 49 0 39 -4 51 -17 54 -17 4 -17 5
0 6 15 1 17 13 17 101 l0 100 -35 0 c-20 0 -37 -6 -40 -12z"/>
<path d="M2437 11016 c-4 -10 -3 -35 2 -55 21 -81 32 -225 18 -254 -4 -9 -4
-25 1 -34 8 -14 12 -12 25 13 15 27 16 27 17 7 0 -13 4 -23 9 -23 5 0 9 13 9
28 -1 15 4 37 11 49 13 26 15 70 2 77 -5 3 -11 -3 -14 -14 -11 -41 -23 -17
-40 83 -10 56 -22 111 -26 121 -7 19 -8 19 -14 2z"/>
<path d="M4902 10961 c-15 -4 -29 -20 -38 -40 -14 -33 -14 -34 3 -20 10 8 30
20 46 27 43 18 34 44 -11 33z"/>
<path d="M2482 10935 c0 -16 2 -22 5 -12 2 9 2 23 0 30 -3 6 -5 -1 -5 -18z"/>
<path d="M2636 10849 c-14 -17 -26 -36 -26 -42 0 -7 6 -3 12 8 6 11 20 30 31
43 11 12 18 22 15 22 -4 0 -18 -14 -32 -31z"/>
<path d="M2087 10853 c-4 -3 -7 -13 -7 -22 1 -13 3 -13 11 2 11 19 8 33 -4 20z"/>
<path d="M5197 10745 c-4 -8 5 -24 22 -37 16 -13 36 -36 44 -53 20 -39 66 -87
77 -80 4 3 19 -26 33 -63 l26 -67 0 91 c1 89 0 91 -29 112 -39 29 -42 28 -35
-15 4 -28 3 -33 -4 -18 -5 11 -10 31 -10 45 -1 19 -15 36 -50 63 -53 40 -66
44 -74 22z"/>
<path d="M2530 10691 c0 -6 5 -13 10 -16 6 -4 8 -16 4 -28 -4 -15 -3 -19 4
-12 5 6 12 22 16 38 5 23 3 27 -14 27 -11 0 -20 -4 -20 -9z"/>
<path d="M2500 10635 c0 -14 -17 -20 -47 -16 -8 1 -13 -10 -13 -31 0 -23 3
-29 9 -19 10 16 31 6 31 -15 0 -8 7 -14 15 -14 8 0 15 -7 15 -17 0 -9 3 -13 7
-10 3 4 6 20 5 37 0 17 4 28 9 25 5 -4 9 -1 9 5 0 7 -9 14 -20 17 -15 4 -18
11 -14 29 3 13 3 24 0 24 -3 0 -6 -7 -6 -15z"/>
<path d="M5350 10505 c0 -8 4 -15 10 -15 5 0 7 7 4 15 -4 8 -8 15 -10 15 -2 0
-4 -7 -4 -15z"/>
<path d="M5036 10447 c3 -10 9 -15 12 -12 3 3 0 11 -7 18 -10 9 -11 8 -5 -6z"/>
<path d="M2370 10204 c-14 -35 -12 -51 5 -58 12 -4 14 0 9 19 -4 15 -2 25 5
25 6 0 11 9 11 20 0 28 -19 25 -30 -6z"/>
<path d="M2091 10104 c0 -11 3 -14 6 -6 3 7 2 16 -1 19 -3 4 -6 -2 -5 -13z"/>
<path d="M2310 10025 c0 -8 7 -15 16 -15 14 0 14 3 4 15 -7 8 -14 15 -16 15
-2 0 -4 -7 -4 -15z"/>
<path d="M2353 9995 c5 -16 37 -18 37 -3 0 8 -9 14 -20 14 -11 0 -19 -5 -17
-11z"/>
<path d="M2320 9988 c0 -8 7 -21 15 -28 19 -16 19 -1 0 24 -12 16 -15 17 -15
4z"/>
<path d="M2123 9810 c0 -25 2 -35 4 -22 2 12 2 32 0 45 -2 12 -4 2 -4 -23z"/>
<path d="M2230 9826 c0 -2 6 -9 14 -15 10 -9 15 -8 19 2 3 8 -3 13 -14 14 -10
1 -19 0 -19 -1z"/>
<path d="M5360 9465 c-19 -12 -48 -25 -64 -29 -27 -7 -28 -9 -13 -23 13 -14
18 -14 30 -2 15 15 53 45 77 59 8 5 12 11 10 13 -3 3 -21 -5 -40 -18z"/>
<path d="M2180 9444 c0 -6 7 -17 15 -24 8 -7 15 -20 16 -29 0 -12 2 -11 8 4
10 24 3 47 -11 39 -6 -4 -14 0 -19 7 -5 8 -9 9 -9 3z"/>
<path d="M2145 9430 c-3 -5 -1 -10 4 -10 6 0 11 5 11 10 0 6 -2 10 -4 10 -3 0
-8 -4 -11 -10z"/>
<path d="M2273 9419 c-3 -11 -11 -18 -19 -17 -7 2 -20 -6 -28 -17 -15 -20 -15
-20 -31 3 -14 20 -18 20 -31 7 -17 -17 -10 -102 12 -146 15 -31 50 -44 58 -22
3 8 11 11 17 7 8 -5 9 -3 4 5 -4 7 -16 11 -26 8 -23 -6 -25 6 -4 23 8 7 12 17
9 22 -4 6 -9 6 -14 -2 -5 -7 -9 -2 -12 14 -4 18 -1 26 8 26 8 0 14 5 14 11 0
6 7 8 16 5 11 -4 15 -2 11 8 -3 8 1 17 9 20 8 3 14 12 14 21 0 8 9 15 20 15
26 0 26 16 -1 23 -15 4 -23 0 -26 -14z"/>
<path d="M2420 9371 c0 -5 5 -13 10 -16 6 -3 10 -2 10 4 0 5 -4 13 -10 16 -5
3 -10 2 -10 -4z"/>
<path d="M2270 9356 c0 -8 7 -16 15 -20 17 -6 18 -4 9 18 -8 20 -24 21 -24 2z"/>
<path d="M2270 9323 c0 -6 8 -17 18 -24 16 -13 16 -13 2 6 -8 11 -16 22 -17
24 -2 2 -3 0 -3 -6z"/>
<path d="M1219 9181 c-19 -16 -20 -19 -6 -17 20 3 43 23 35 31 -3 3 -16 -3
-29 -14z"/>
<path d="M2181 9183 c-1 -12 4 -25 9 -28 12 -7 12 2 0 30 -8 19 -9 19 -9 -2z"/>
<path d="M2172 9090 c0 -14 2 -19 5 -12 2 6 2 18 0 25 -3 6 -5 1 -5 -13z"/>
<path d="M4513 9064 c-15 -16 -17 -44 -3 -44 9 0 26 48 19 54 -2 2 -10 -2 -16
-10z"/>
<path d="M5241 9054 c0 -11 3 -14 6 -6 3 7 2 16 -1 19 -3 4 -6 -2 -5 -13z"/>
<path d="M5172 9045 c-1 -11 3 -51 9 -90 24 -161 26 -164 26 -35 0 69 -2 107
-5 85 l-5 -40 -12 50 c-7 28 -13 41 -13 30z"/>
<path d="M5228 8997 c-3 -19 -2 -25 4 -19 6 6 8 18 6 28 -3 14 -5 12 -10 -9z"/>
<path d="M4376 8973 c-6 -14 -5 -15 5 -6 7 7 10 15 7 18 -3 3 -9 -2 -12 -12z"/>
<path d="M1070 8902 c0 -51 3 -62 23 -75 13 -8 61 -52 106 -97 45 -45 85 -79
88 -76 9 9 32 -26 33 -49 0 -15 2 -17 9 -6 7 11 9 11 14 0 5 -12 6 -12 6 0 1
8 9 5 22 -10 18 -21 20 -22 14 -4 -3 11 -9 33 -12 50 -4 16 -12 40 -19 53 -20
39 -155 182 -209 222 -79 58 -75 58 -75 -8z"/>
<path d="M5081 8935 c0 -11 4 -29 9 -40 l9 -20 0 20 c0 11 -4 29 -9 40 l-9 20
0 -20z"/>
<path d="M5222 8930 c0 -14 2 -19 5 -12 2 6 2 18 0 25 -3 6 -5 1 -5 -13z"/>
<path d="M5150 8913 c0 -6 -3 -19 -7 -29 -4 -12 -3 -15 5 -10 8 5 12 -2 12
-21 0 -21 3 -25 10 -13 5 8 7 26 3 40 -6 27 -23 51 -23 33z"/>
<path d="M4341 8892 c-17 -31 -13 -40 5 -14 9 13 14 26 11 29 -3 2 -10 -4 -16
-15z"/>
<path d="M5221 8854 c0 -11 3 -14 6 -6 3 7 2 16 -1 19 -3 4 -6 -2 -5 -13z"/>
<path d="M5191 8774 c0 -11 3 -14 6 -6 3 7 2 16 -1 19 -3 4 -6 -2 -5 -13z"/>
<path d="M5179 8723 l-1 -28 -9 25 c-6 18 -7 13 -3 -20 8 -68 14 -85 25 -69 4
8 3 19 -3 26 -9 12 -7 38 8 77 3 9 1 16 -5 16 -6 0 -11 -12 -12 -27z"/>
<path d="M1071 8613 c0 -46 2 -53 10 -35 5 13 13 20 19 17 5 -3 10 1 10 10 0
9 -4 13 -10 10 -6 -3 -10 5 -10 19 0 14 -4 28 -10 31 -6 4 -10 -16 -9 -52z"/>
<path d="M1248 8600 c-16 -14 -28 -30 -28 -35 0 -5 7 0 15 11 14 19 14 19 15
-1 0 -16 3 -14 15 9 21 40 15 46 -17 16z"/>
<path d="M1290 8558 c0 -17 -3 -19 -9 -9 -6 10 -13 5 -25 -19 -9 -18 -16 -34
-16 -34 0 -1 11 -3 25 -4 19 -1 25 3 25 18 0 11 5 20 10 20 6 0 10 11 10 25 0
14 -4 25 -10 25 -5 0 -10 -10 -10 -22z"/>
<path d="M3127 8507 c-3 -8 -1 -20 4 -28 6 -10 9 -7 9 14 0 29 -5 35 -13 14z"/>
<path d="M1150 8464 c0 -9 -6 -14 -13 -11 -10 4 -13 -10 -11 -62 1 -36 7 -77
12 -91 5 -14 6 -34 1 -45 -4 -11 -8 -14 -8 -7 -1 6 -5 12 -9 12 -4 0 -6 -16
-4 -35 3 -29 7 -33 18 -24 11 9 14 8 14 -7 0 -36 -12 -67 -21 -53 -6 10 -11
10 -23 0 -15 -12 -15 -15 1 -26 20 -15 43 -3 43 21 0 8 6 14 14 14 16 0 31
130 21 184 -5 26 -3 35 11 40 16 6 16 8 4 17 -11 6 -12 11 -4 17 17 11 15 64
-2 58 -7 -3 -16 -1 -19 4 -10 16 -25 12 -25 -6z m20 -271 c0 -45 -5 -40 -13
10 -3 22 -2 35 4 32 5 -4 9 -22 9 -42z"/>
<path d="M1271 8473 c-1 -6 -4 -20 -7 -30 -5 -17 -5 -17 6 0 6 10 9 23 6 30
-3 9 -5 9 -5 0z"/>
<path d="M1286 8454 c-3 -9 -2 -23 4 -32 7 -14 9 -10 10 16 0 35 -5 41 -14 16z"/>
<path d="M3142 8430 c0 -19 2 -27 5 -17 2 9 2 25 0 35 -3 9 -5 1 -5 -18z"/>
<path d="M1236 8382 c-3 -5 1 -15 9 -22 16 -14 20 -3 6 19 -5 8 -11 9 -15 3z"/>
<path d="M1271 8374 c0 -11 3 -14 6 -6 3 7 2 16 -1 19 -3 4 -6 -2 -5 -13z"/>
<path d="M1319 8345 c-9 -23 -16 -31 -21 -22 -6 9 -8 8 -8 -3 0 -8 4 -21 9
-29 7 -10 11 -5 16 18 4 17 10 29 13 27 4 -2 8 7 8 20 2 33 -3 30 -17 -11z"/>
<path d="M1232 8299 c2 -6 7 -10 11 -10 4 1 14 1 23 1 8 0 12 5 9 10 -8 13
-48 13 -43 -1z"/>
<path d="M1355 8290 c3 -5 8 -10 11 -10 2 0 4 5 4 10 0 6 -5 10 -11 10 -5 0
-7 -4 -4 -10z"/>
<path d="M2131 8054 c0 -11 3 -14 6 -6 3 7 2 16 -1 19 -3 4 -6 -2 -5 -13z"/>
<path d="M1070 8019 c0 -39 13 -52 24 -24 3 8 16 16 28 16 17 1 18 2 6 6 -10
2 -18 10 -18 18 0 7 -9 15 -20 18 -17 4 -20 0 -20 -34z"/>
<path d="M3931 8004 c0 -11 3 -14 6 -6 3 7 2 16 -1 19 -3 4 -6 -2 -5 -13z"/>
<path d="M3261 7904 c0 -11 3 -14 6 -6 3 7 2 16 -1 19 -3 4 -6 -2 -5 -13z"/>
<path d="M1941 7784 c0 -11 3 -14 6 -6 3 7 2 16 -1 19 -3 4 -6 -2 -5 -13z"/>
<path d="M1846 7705 c4 -8 8 -15 10 -15 2 0 4 7 4 15 0 8 -4 15 -10 15 -5 0
-7 -7 -4 -15z"/>
<path d="M1921 7704 c0 -11 3 -14 6 -6 3 7 2 16 -1 19 -3 4 -6 -2 -5 -13z"/>
<path d="M2131 7674 c0 -11 3 -14 6 -6 3 7 2 16 -1 19 -3 4 -6 -2 -5 -13z"/>
<path d="M2155 7632 c-5 -4 -11 -17 -13 -29 -2 -17 1 -21 12 -17 9 3 16 12 16
20 0 8 5 14 10 14 6 0 10 5 10 10 0 12 -20 13 -35 2z"/>
<path d="M2400 7511 c0 -10 30 -24 37 -17 3 3 2 9 -2 15 -8 13 -35 15 -35 2z"/>
<path d="M3593 7513 c-7 -2 -12 -19 -12 -36 1 -19 3 -24 6 -14 4 17 6 17 22 3
21 -19 51 -11 51 13 0 33 -32 49 -67 34z"/>
<path d="M2296 7467 c3 -10 9 -15 12 -12 3 3 0 11 -7 18 -10 9 -11 8 -5 -6z"/>
<path d="M3406 7445 c4 -8 8 -15 10 -15 2 0 4 7 4 15 0 8 -4 15 -10 15 -5 0
-7 -7 -4 -15z"/>
<path d="M3010 7424 c0 -8 5 -12 10 -9 6 4 8 11 5 16 -9 14 -15 11 -15 -7z"/>
<path d="M1530 7389 c0 -5 5 -7 10 -4 6 3 10 8 10 11 0 2 -4 4 -10 4 -5 0 -10
-5 -10 -11z"/>
<path d="M2142 7371 c-12 -17 -18 -31 -12 -31 16 0 12 -20 -10 -48 -13 -16
-17 -28 -10 -32 7 -5 6 -37 -5 -104 -9 -54 -14 -100 -12 -102 5 -5 37 157 37
186 0 12 4 19 9 16 5 -3 12 1 15 9 3 8 11 14 18 13 7 -2 13 8 13 25 1 16 6 32
13 35 8 6 5 16 -11 36 l-22 27 -23 -30z m42 -35 c-6 -16 -34 -17 -34 -1 0 6 9
11 19 12 12 1 18 -3 15 -11z"/>
<path d="M1505 7370 c3 -5 11 -10 16 -10 6 0 7 5 4 10 -3 6 -11 10 -16 10 -6
0 -7 -4 -4 -10z"/>
<path d="M1760 7346 c0 -8 5 -18 10 -21 6 -3 10 3 10 14 0 12 -4 21 -10 21 -5
0 -10 -6 -10 -14z"/>
<path d="M2282 7333 c-6 -16 -14 -46 -18 -68 -5 -36 -5 -38 8 -20 8 11 25 38
38 60 l24 40 -23 -20 -22 -19 6 27 c9 35 1 35 -13 0z"/>
<path d="M2600 7330 c0 -5 5 -10 10 -10 6 0 10 5 10 10 0 6 -4 10 -10 10 -5 0
-10 -4 -10 -10z"/>
<path d="M1771 7294 c0 -11 3 -14 6 -6 3 7 2 16 -1 19 -3 4 -6 -2 -5 -13z"/>
<path d="M1783 7272 c-7 -4 -9 -13 -4 -21 6 -10 10 -9 15 5 8 20 4 25 -11 16z"/>
<path d="M1852 7260 c0 -14 2 -19 5 -12 2 6 2 18 0 25 -3 6 -5 1 -5 -13z"/>
<path d="M2293 7202 c-9 -6 -6 -11 7 -20 21 -13 26 -6 12 15 -4 7 -13 9 -19 5z"/>
<path d="M2217 7156 c-7 -17 -104 -153 -125 -175 -11 -12 -13 -8 -8 25 6 35 3
32 -26 -29 -18 -38 -36 -65 -40 -61 -5 4 -8 5 -8 1 0 -14 34 -37 55 -37 13 0
26 -6 28 -12 3 -7 6 13 6 45 1 31 5 57 9 57 18 0 52 42 52 65 0 16 10 30 30
42 17 9 30 23 30 30 0 6 6 16 14 20 12 7 12 11 1 26 -11 15 -14 15 -18 3z"/>
<path d="M2640 7080 c0 -5 5 -10 10 -10 6 0 10 5 10 10 0 6 -4 10 -10 10 -5 0
-10 -4 -10 -10z"/>
<path d="M2551 7034 c0 -11 3 -14 6 -6 3 7 2 16 -1 19 -3 4 -6 -2 -5 -13z"/>
<path d="M2682 7000 c0 -14 2 -19 5 -12 2 6 2 18 0 25 -3 6 -5 1 -5 -13z"/>
<path d="M1291 6864 c0 -11 3 -14 6 -6 3 7 2 16 -1 19 -3 4 -6 -2 -5 -13z"/>
<path d="M3521 6867 c-6 -6 -11 -20 -12 -31 0 -21 0 -21 -9 -1 -8 18 -9 17 -9
-7 -1 -15 4 -30 9 -33 6 -3 10 -2 10 2 0 5 12 9 28 8 22 0 28 5 30 25 3 30
-28 56 -47 37z"/>
<path d="M2044 6823 c4 -12 2 -24 -4 -28 -5 -3 -10 -11 -10 -16 0 -6 5 -7 11
-3 13 7 8 -46 -6 -81 -8 -18 -7 -19 9 -6 13 11 17 26 14 58 -2 24 0 43 4 43
13 0 9 21 -8 38 -15 15 -16 14 -10 -5z"/>
<path d="M2096 6779 c-3 -17 -10 -28 -16 -24 -12 7 -12 -2 0 -30 5 -11 9 -14
9 -7 1 7 6 10 11 7 6 -4 10 12 10 39 0 53 -5 59 -14 15z"/>
<path d="M2181 6774 c0 -11 3 -14 6 -6 3 7 2 16 -1 19 -3 4 -6 -2 -5 -13z"/>
<path d="M2250 6736 c0 -2 7 -9 15 -16 13 -11 14 -10 9 4 -5 14 -24 23 -24 12z"/>
<path d="M1507 6646 c-4 -9 -11 -14 -17 -11 -5 3 -10 -1 -10 -9 0 -9 4 -16 9
-16 14 0 33 28 29 42 -3 8 -7 6 -11 -6z"/>
<path d="M2041 6627 c-7 -10 -20 -17 -27 -17 -22 0 -16 -35 10 -63 l25 -27 6
44 c4 24 5 52 3 61 -3 17 -4 17 -17 2z"/>
<path d="M1706 6604 c-3 -9 2 -14 14 -14 11 0 20 -6 20 -12 0 -9 3 -8 9 2 12
17 7 26 -18 33 -12 3 -22 -1 -25 -9z"/>
<path d="M2716 6605 c4 -8 8 -15 10 -15 2 0 4 7 4 15 0 8 -4 15 -10 15 -5 0
-7 -7 -4 -15z"/>
<path d="M2631 6574 c0 -11 3 -14 6 -6 3 7 2 16 -1 19 -3 4 -6 -2 -5 -13z"/>
<path d="M2025 6429 c-5 -5 -26 -23 -45 -40 -22 -19 -30 -33 -23 -36 10 -3 10
-10 2 -24 -6 -11 -9 -36 -8 -54 2 -19 0 -37 -4 -41 -4 -4 -7 14 -7 39 0 53
-13 59 -67 32 -36 -18 -46 -53 -27 -91 13 -23 12 -26 -6 -31 -11 -3 -20 -10
-20 -16 0 -6 -6 -3 -13 7 -11 15 -17 17 -35 7 -31 -16 -28 -33 4 -25 17 4 29
2 35 -7 5 -8 9 -9 9 -3 0 7 6 14 13 17 9 3 5 -19 -13 -69 -21 -64 -23 -76 -10
-84 8 -5 15 -26 17 -47 1 -21 5 -59 8 -84 5 -34 3 -53 -8 -70 -21 -32 -11 -76
21 -97 24 -16 25 -18 18 -108 -5 -75 -3 -94 9 -104 8 -7 15 -24 15 -39 1 -24
22 -64 31 -58 2 1 -2 -3 -9 -10 -11 -9 -12 -22 -1 -70 l13 -58 7 40 c23 116
30 231 20 309 -6 45 -11 189 -12 321 -2 214 0 244 17 278 12 25 20 33 26 25 5
-9 8 -6 8 9 0 12 5 25 11 29 6 4 9 19 5 38 -5 29 -5 30 9 12 16 -21 21 -10 6
14 -6 8 -7 18 -4 24 4 5 10 1 14 -10 5 -12 8 -1 8 34 1 28 0 52 -1 52 -2 -1
-7 -5 -13 -11z"/>
<path d="M2071 6424 c0 -11 3 -14 6 -6 3 7 2 16 -1 19 -3 4 -6 -2 -5 -13z"/>
<path d="M2080 6326 c0 -8 5 -18 10 -21 6 -3 10 1 10 9 0 8 -4 18 -10 21 -5 3
-10 -1 -10 -9z"/>
<path d="M1255 6250 c-3 -5 1 -10 9 -10 9 0 16 5 16 10 0 6 -4 10 -9 10 -6 0
-13 -4 -16 -10z"/>
<path d="M3367 6243 c-15 -25 29 -55 44 -31 12 18 11 30 -1 23 -5 -3 -10 -1
-10 4 0 12 -27 15 -33 4z"/>
<path d="M1785 6220 c-3 -5 -1 -10 4 -10 6 0 11 5 11 10 0 6 -2 10 -4 10 -3 0
-8 -4 -11 -10z"/>
<path d="M2891 6114 c0 -11 3 -14 6 -6 3 7 2 16 -1 19 -3 4 -6 -2 -5 -13z"/>
<path d="M1771 6034 c0 -11 3 -14 6 -6 3 7 2 16 -1 19 -3 4 -6 -2 -5 -13z"/>
<path d="M5108 6026 c-10 -7 -18 -16 -18 -19 0 -8 89 -1 98 7 17 18 -59 29
-80 12z"/>
<path d="M1990 5995 c0 -8 4 -15 10 -15 5 0 7 7 4 15 -4 8 -8 15 -10 15 -2 0
-4 -7 -4 -15z"/>
<path d="M5093 5873 c-30 -12 -11 -25 28 -20 58 8 75 27 24 26 -22 0 -46 -3
-52 -6z"/>
<path d="M2321 5854 c0 -11 3 -14 6 -6 3 7 2 16 -1 19 -3 4 -6 -2 -5 -13z"/>
<path d="M5216 5838 c3 -7 32 -34 65 -60 66 -52 70 -62 11 -25 -59 38 -82 48
-82 39 0 -17 36 -51 110 -102 69 -47 75 -49 78 -30 2 12 -2 28 -10 37 -9 12
-10 15 0 9 17 -10 16 38 -1 53 -19 15 -158 91 -168 91 -5 0 -6 -6 -3 -12z"/>
<path d="M2021 5814 c0 -11 3 -14 6 -6 3 7 2 16 -1 19 -3 4 -6 -2 -5 -13z"/>
<path d="M2025 5769 c-4 -6 -5 -12 -2 -15 2 -3 7 2 10 11 7 17 1 20 -8 4z"/>
<path d="M5210 5732 c0 -21 60 -76 138 -127 23 -15 42 -31 42 -36 0 -9 -119
70 -157 104 -13 11 -26 17 -30 14 -15 -15 19 -57 76 -93 33 -22 60 -42 60 -46
2 -18 -24 -5 -79 37 -32 25 -61 45 -63 45 -17 0 13 -47 58 -90 49 -45 58 -50
100 -50 l46 0 -3 67 -3 68 -65 41 c-36 23 -77 52 -92 64 -27 21 -28 21 -28 2z"/>
<path d="M1520 5710 c0 -5 5 -10 11 -10 5 0 7 5 4 10 -3 6 -8 10 -11 10 -2 0
-4 -4 -4 -10z"/>
<path d="M2730 5631 c0 -6 4 -13 10 -16 6 -3 7 1 4 9 -7 18 -14 21 -14 7z"/>
<path d="M2855 5620 c3 -5 8 -10 11 -10 2 0 4 5 4 10 0 6 -5 10 -11 10 -5 0
-7 -4 -4 -10z"/>
<path d="M3320 5579 c-7 -11 -10 -22 -8 -23 53 -35 57 -36 72 -20 19 19 20 36
4 52 -19 19 -56 14 -68 -9z"/>
<path d="M2060 5506 c0 -8 -6 -17 -12 -19 -8 -3 -6 -6 5 -6 11 -1 17 6 17 19
0 11 -2 20 -5 20 -3 0 -5 -6 -5 -14z"/>
<path d="M5350 5470 c0 -11 42 -31 49 -24 5 5 -30 33 -41 34 -5 0 -8 -5 -8
-10z"/>
<path d="M2191 5458 c-1 -21 15 -32 25 -17 4 7 3 9 -4 5 -6 -3 -13 2 -15 11
-4 16 -5 16 -6 1z"/>
<path d="M2440 5370 c0 -5 5 -10 11 -10 5 0 7 5 4 10 -3 6 -8 10 -11 10 -2 0
-4 -4 -4 -10z"/>
<path d="M1450 5235 c0 -8 2 -15 4 -15 2 0 6 7 10 15 3 8 1 15 -4 15 -6 0 -10
-7 -10 -15z"/>
<path d="M4076 5182 c-2 -4 -1 -14 5 -22 5 -9 9 -10 9 -3 0 6 17 15 38 21 l37
10 -42 1 c-23 1 -44 -3 -47 -7z"/>
<path d="M2521 5104 c0 -11 3 -14 6 -6 3 7 2 16 -1 19 -3 4 -6 -2 -5 -13z"/>
<path d="M2112 5050 c0 -14 2 -19 5 -12 2 6 2 18 0 25 -3 6 -5 1 -5 -13z"/>
<path d="M4091 5034 c0 -11 3 -14 6 -6 3 7 2 16 -1 19 -3 4 -6 -2 -5 -13z"/>
<path d="M1920 5000 c-23 -7 -23 -7 10 -11 33 -4 36 -7 57 -69 l23 -65 -6 64
c-8 86 -23 100 -84 81z"/>
<path d="M3285 4950 c-4 -6 -10 -8 -15 -5 -14 9 -23 -35 -10 -50 16 -19 54
-19 70 0 13 16 10 50 -5 50 -6 0 -15 4 -22 8 -6 4 -14 3 -18 -3z"/>
<path d="M5374 4909 c-3 -6 -2 -15 3 -20 5 -5 9 -1 10 11 2 22 -2 25 -13 9z"/>
<path d="M4098 4830 c-2 -36 0 -81 6 -100 l11 -35 3 51 c2 28 -1 73 -6 100
l-8 49 -6 -65z"/>
<path d="M5371 4704 c0 -11 3 -14 6 -6 3 7 2 16 -1 19 -3 4 -6 -2 -5 -13z"/>
<path d="M2762 4670 c0 -14 2 -19 5 -12 2 6 2 18 0 25 -3 6 -5 1 -5 -13z"/>
<path d="M4205 4670 c3 -5 13 -10 21 -10 8 0 12 5 9 10 -3 6 -13 10 -21 10 -8
0 -12 -4 -9 -10z"/>
<path d="M2412 4625 c0 -16 2 -22 5 -12 2 9 2 23 0 30 -3 6 -5 -1 -5 -18z"/>
<path d="M4285 4634 c11 -10 28 -28 39 -39 10 -11 7 -4 -6 14 -14 19 -31 37
-39 40 -8 2 -5 -4 6 -15z"/>
<path d="M2114 4618 c3 -7 7 -26 10 -41 4 -15 11 -25 16 -22 6 3 10 -4 11 -17
0 -13 3 -17 6 -10 2 6 12 12 20 12 12 0 14 7 8 27 -4 16 -7 28 -8 28 -1 0 -17
8 -34 18 -23 12 -32 14 -29 5z"/>
<path d="M2405 4570 c3 -5 8 -10 11 -10 2 0 4 5 4 10 0 6 -5 10 -11 10 -5 0
-7 -4 -4 -10z"/>
<path d="M2266 4545 c4 -16 11 -41 16 -54 13 -34 2 -38 -23 -8 -11 15 -29 27
-40 27 -25 0 -24 -12 1 -28 12 -7 18 -18 14 -24 -4 -6 -3 -9 2 -6 5 3 17 -4
26 -16 79 -97 81 -96 43 28 -26 84 -52 138 -39 81z"/>
<path d="M4346 4528 c9 -57 14 -61 14 -10 0 22 -5 44 -10 47 -7 4 -8 -8 -4
-37z"/>
<path d="M2170 4510 c0 -5 5 -10 10 -10 6 0 10 5 10 10 0 6 -4 10 -10 10 -5 0
-10 -4 -10 -10z"/>
<path d="M2446 4503 c-4 -9 -2 -21 4 -27 7 -7 10 -2 10 17 0 31 -5 34 -14 10z"/>
<path d="M3162 4460 c0 -14 2 -19 5 -12 2 6 2 18 0 25 -3 6 -5 1 -5 -13z"/>
<path d="M3226 4304 c-20 -20 -20 -27 3 -55 16 -21 22 -22 45 -11 14 6 26 17
26 24 0 9 -3 8 -11 -2 -8 -12 -10 -11 -7 5 3 19 -19 55 -34 55 -3 0 -14 -7
-22 -16z"/>
<path d="M2420 4296 c0 -2 15 -29 34 -60 35 -59 48 -110 41 -164 -6 -44 15
-29 34 24 11 29 11 41 1 60 -7 13 -16 21 -20 19 -10 -6 -40 57 -40 82 0 11
-11 25 -25 31 -14 6 -25 10 -25 8z"/>
<path d="M4153 4085 c-3 -9 -3 -18 -1 -21 3 -3 8 4 11 16 6 23 -1 27 -10 5z"/>
<path d="M3320 3940 c0 -5 5 -10 10 -10 6 0 10 5 10 10 0 6 -4 10 -10 10 -5 0
-10 -4 -10 -10z"/>
<path d="M2830 3634 c0 -8 5 -12 10 -9 6 3 10 10 10 16 0 5 -4 9 -10 9 -5 0
-10 -7 -10 -16z"/>
<path d="M4877 2344 c-12 -12 4 -24 31 -24 26 1 26 1 8 15 -22 17 -30 18 -39
9z"/>
<path d="M4960 2338 c0 -14 8 -18 35 -18 19 0 35 4 35 9 0 13 -39 21 -46 9 -4
-6 -10 -5 -15 3 -7 11 -9 10 -9 -3z"/>
<path d="M4570 2330 c0 -5 12 -10 28 -10 21 0 24 2 12 10 -20 13 -40 13 -40 0z"/>
</g>
</svg>
